<svg version="1.1" xmlns="http://www.w3.org/2000/svg" width="258px" height="258px" viewBox="0 0 258 258"  preserveAspectRatio="xMinYMin meet"><rect width="100%" height="100%" fill="white" cx="0" cy="0"/><path d="M18,18l6,0 0,6 -6,0 0,-6z M24,18l6,0 0,6 -6,0 0,-6z M30,18l6,0 0,6 -6,0 0,-6z M36,18l6,0 0,6 -6,0 0,-6z M42,18l6,0 0,6 -6,0 0,-6z M48,18l6,0 0,6 -6,0 0,-6z M54,18l6,0 0,6 -6,0 0,-6z M66,18l6,0 0,6 -6,0 0,-6z M78,18l6,0 0,6 -6,0 0,-6z M90,18l6,0 0,6 -6,0 0,-6z M96,18l6,0 0,6 -6,0 0,-6z M102,18l6,0 0,6 -6,0 0,-6z M108,18l6,0 0,6 -6,0 0,-6z M138,18l6,0 0,6 -6,0 0,-6z M144,18l6,0 0,6 -6,0 0,-6z M156,18l6,0 0,6 -6,0 0,-6z M162,18l6,0 0,6 -6,0 0,-6z M174,18l6,0 0,6 -6,0 0,-6z M198,18l6,0 0,6 -6,0 0,-6z M204,18l6,0 0,6 -6,0 0,-6z M210,18l6,0 0,6 -6,0 0,-6z M216,18l6,0 0,6 -6,0 0,-6z M222,18l6,0 0,6 -6,0 0,-6z M228,18l6,0 0,6 -6,0 0,-6z M234,18l6,0 0,6 -6,0 0,-6z M18,24l6,0 0,6 -6,0 0,-6z M54,24l6,0 0,6 -6,0 0,-6z M72,24l6,0 0,6 -6,0 0,-6z M78,24l6,0 0,6 -6,0 0,-6z M84,24l6,0 0,6 -6,0 0,-6z M90,24l6,0 0,6 -6,0 0,-6z M96,24l6,0 0,6 -6,0 0,-6z M114,24l6,0 0,6 -6,0 0,-6z M138,24l6,0 0,6 -6,0 0,-6z M156,24l6,0 0,6 -6,0 0,-6z M162,24l6,0 0,6 -6,0 0,-6z M168,24l6,0 0,6 -6,0 0,-6z M186,24l6,0 0,6 -6,0 0,-6z M198,24l6,0 0,6 -6,0 0,-6z M234,24l6,0 0,6 -6,0 0,-6z M18,30l6,0 0,6 -6,0 0,-6z M30,30l6,0 0,6 -6,0 0,-6z M36,30l6,0 0,6 -6,0 0,-6z M42,30l6,0 0,6 -6,0 0,-6z M54,30l6,0 0,6 -6,0 0,-6z M66,30l6,0 0,6 -6,0 0,-6z M72,30l6,0 0,6 -6,0 0,-6z M78,30l6,0 0,6 -6,0 0,-6z M114,30l6,0 0,6 -6,0 0,-6z M150,30l6,0 0,6 -6,0 0,-6z M168,30l6,0 0,6 -6,0 0,-6z M174,30l6,0 0,6 -6,0 0,-6z M186,30l6,0 0,6 -6,0 0,-6z M198,30l6,0 0,6 -6,0 0,-6z M210,30l6,0 0,6 -6,0 0,-6z M216,30l6,0 0,6 -6,0 0,-6z M222,30l6,0 0,6 -6,0 0,-6z M234,30l6,0 0,6 -6,0 0,-6z M18,36l6,0 0,6 -6,0 0,-6z M30,36l6,0 0,6 -6,0 0,-6z M36,36l6,0 0,6 -6,0 0,-6z M42,36l6,0 0,6 -6,0 0,-6z M54,36l6,0 0,6 -6,0 0,-6z M66,36l6,0 0,6 -6,0 0,-6z M72,36l6,0 0,6 -6,0 0,-6z M78,36l6,0 0,6 -6,0 0,-6z M90,36l6,0 0,6 -6,0 0,-6z M102,36l6,0 0,6 -6,0 0,-6z M108,36l6,0 0,6 -6,0 0,-6z M120,36l6,0 0,6 -6,0 0,-6z M144,36l6,0 0,6 -6,0 0,-6z M150,36l6,0 0,6 -6,0 0,-6z M162,36l6,0 0,6 -6,0 0,-6z M168,36l6,0 0,6 -6,0 0,-6z M180,36l6,0 0,6 -6,0 0,-6z M186,36l6,0 0,6 -6,0 0,-6z M198,36l6,0 0,6 -6,0 0,-6z M210,36l6,0 0,6 -6,0 0,-6z M216,36l6,0 0,6 -6,0 0,-6z M222,36l6,0 0,6 -6,0 0,-6z M234,36l6,0 0,6 -6,0 0,-6z M18,42l6,0 0,6 -6,0 0,-6z M30,42l6,0 0,6 -6,0 0,-6z M36,42l6,0 0,6 -6,0 0,-6z M42,42l6,0 0,6 -6,0 0,-6z M54,42l6,0 0,6 -6,0 0,-6z M66,42l6,0 0,6 -6,0 0,-6z M84,42l6,0 0,6 -6,0 0,-6z M90,42l6,0 0,6 -6,0 0,-6z M102,42l6,0 0,6 -6,0 0,-6z M114,42l6,0 0,6 -6,0 0,-6z M120,42l6,0 0,6 -6,0 0,-6z M132,42l6,0 0,6 -6,0 0,-6z M138,42l6,0 0,6 -6,0 0,-6z M150,42l6,0 0,6 -6,0 0,-6z M162,42l6,0 0,6 -6,0 0,-6z M174,42l6,0 0,6 -6,0 0,-6z M180,42l6,0 0,6 -6,0 0,-6z M198,42l6,0 0,6 -6,0 0,-6z M210,42l6,0 0,6 -6,0 0,-6z M216,42l6,0 0,6 -6,0 0,-6z M222,42l6,0 0,6 -6,0 0,-6z M234,42l6,0 0,6 -6,0 0,-6z M18,48l6,0 0,6 -6,0 0,-6z M54,48l6,0 0,6 -6,0 0,-6z M78,48l6,0 0,6 -6,0 0,-6z M84,48l6,0 0,6 -6,0 0,-6z M96,48l6,0 0,6 -6,0 0,-6z M108,48l6,0 0,6 -6,0 0,-6z M114,48l6,0 0,6 -6,0 0,-6z M132,48l6,0 0,6 -6,0 0,-6z M150,48l6,0 0,6 -6,0 0,-6z M162,48l6,0 0,6 -6,0 0,-6z M186,48l6,0 0,6 -6,0 0,-6z M198,48l6,0 0,6 -6,0 0,-6z M234,48l6,0 0,6 -6,0 0,-6z M18,54l6,0 0,6 -6,0 0,-6z M24,54l6,0 0,6 -6,0 0,-6z M30,54l6,0 0,6 -6,0 0,-6z M36,54l6,0 0,6 -6,0 0,-6z M42,54l6,0 0,6 -6,0 0,-6z M48,54l6,0 0,6 -6,0 0,-6z M54,54l6,0 0,6 -6,0 0,-6z M66,54l6,0 0,6 -6,0 0,-6z M78,54l6,0 0,6 -6,0 0,-6z M90,54l6,0 0,6 -6,0 0,-6z M102,54l6,0 0,6 -6,0 0,-6z M114,54l6,0 0,6 -6,0 0,-6z M126,54l6,0 0,6 -6,0 0,-6z M138,54l6,0 0,6 -6,0 0,-6z M150,54l6,0 0,6 -6,0 0,-6z M162,54l6,0 0,6 -6,0 0,-6z M174,54l6,0 0,6 -6,0 0,-6z M186,54l6,0 0,6 -6,0 0,-6z M198,54l6,0 0,6 -6,0 0,-6z M204,54l6,0 0,6 -6,0 0,-6z M210,54l6,0 0,6 -6,0 0,-6z M216,54l6,0 0,6 -6,0 0,-6z M222,54l6,0 0,6 -6,0 0,-6z M228,54l6,0 0,6 -6,0 0,-6z M234,54l6,0 0,6 -6,0 0,-6z M78,60l6,0 0,6 -6,0 0,-6z M90,60l6,0 0,6 -6,0 0,-6z M108,60l6,0 0,6 -6,0 0,-6z M114,60l6,0 0,6 -6,0 0,-6z M120,60l6,0 0,6 -6,0 0,-6z M126,60l6,0 0,6 -6,0 0,-6z M132,60l6,0 0,6 -6,0 0,-6z M138,60l6,0 0,6 -6,0 0,-6z M156,60l6,0 0,6 -6,0 0,-6z M174,60l6,0 0,6 -6,0 0,-6z M180,60l6,0 0,6 -6,0 0,-6z M18,66l6,0 0,6 -6,0 0,-6z M24,66l6,0 0,6 -6,0 0,-6z M30,66l6,0 0,6 -6,0 0,-6z M36,66l6,0 0,6 -6,0 0,-6z M54,66l6,0 0,6 -6,0 0,-6z M66,66l6,0 0,6 -6,0 0,-6z M78,66l6,0 0,6 -6,0 0,-6z M84,66l6,0 0,6 -6,0 0,-6z M90,66l6,0 0,6 -6,0 0,-6z M96,66l6,0 0,6 -6,0 0,-6z M108,66l6,0 0,6 -6,0 0,-6z M120,66l6,0 0,6 -6,0 0,-6z M126,66l6,0 0,6 -6,0 0,-6z M138,66l6,0 0,6 -6,0 0,-6z M144,66l6,0 0,6 -6,0 0,-6z M156,66l6,0 0,6 -6,0 0,-6z M162,66l6,0 0,6 -6,0 0,-6z M186,66l6,0 0,6 -6,0 0,-6z M192,66l6,0 0,6 -6,0 0,-6z M210,66l6,0 0,6 -6,0 0,-6z M216,66l6,0 0,6 -6,0 0,-6z M222,66l6,0 0,6 -6,0 0,-6z M234,66l6,0 0,6 -6,0 0,-6z M24,72l6,0 0,6 -6,0 0,-6z M36,72l6,0 0,6 -6,0 0,-6z M48,72l6,0 0,6 -6,0 0,-6z M60,72l6,0 0,6 -6,0 0,-6z M66,72l6,0 0,6 -6,0 0,-6z M72,72l6,0 0,6 -6,0 0,-6z M78,72l6,0 0,6 -6,0 0,-6z M90,72l6,0 0,6 -6,0 0,-6z M96,72l6,0 0,6 -6,0 0,-6z M102,72l6,0 0,6 -6,0 0,-6z M108,72l6,0 0,6 -6,0 0,-6z M120,72l6,0 0,6 -6,0 0,-6z M126,72l6,0 0,6 -6,0 0,-6z M132,72l6,0 0,6 -6,0 0,-6z M144,72l6,0 0,6 -6,0 0,-6z M150,72l6,0 0,6 -6,0 0,-6z M156,72l6,0 0,6 -6,0 0,-6z M168,72l6,0 0,6 -6,0 0,-6z M222,72l6,0 0,6 -6,0 0,-6z M18,78l6,0 0,6 -6,0 0,-6z M30,78l6,0 0,6 -6,0 0,-6z M42,78l6,0 0,6 -6,0 0,-6z M54,78l6,0 0,6 -6,0 0,-6z M66,78l6,0 0,6 -6,0 0,-6z M78,78l6,0 0,6 -6,0 0,-6z M84,78l6,0 0,6 -6,0 0,-6z M90,78l6,0 0,6 -6,0 0,-6z M96,78l6,0 0,6 -6,0 0,-6z M114,78l6,0 0,6 -6,0 0,-6z M120,78l6,0 0,6 -6,0 0,-6z M126,78l6,0 0,6 -6,0 0,-6z M138,78l6,0 0,6 -6,0 0,-6z M144,78l6,0 0,6 -6,0 0,-6z M156,78l6,0 0,6 -6,0 0,-6z M192,78l6,0 0,6 -6,0 0,-6z M210,78l6,0 0,6 -6,0 0,-6z M30,84l6,0 0,6 -6,0 0,-6z M36,84l6,0 0,6 -6,0 0,-6z M48,84l6,0 0,6 -6,0 0,-6z M66,84l6,0 0,6 -6,0 0,-6z M78,84l6,0 0,6 -6,0 0,-6z M114,84l6,0 0,6 -6,0 0,-6z M126,84l6,0 0,6 -6,0 0,-6z M150,84l6,0 0,6 -6,0 0,-6z M168,84l6,0 0,6 -6,0 0,-6z M180,84l6,0 0,6 -6,0 0,-6z M186,84l6,0 0,6 -6,0 0,-6z M198,84l6,0 0,6 -6,0 0,-6z M216,84l6,0 0,6 -6,0 0,-6z M222,84l6,0 0,6 -6,0 0,-6z M18,90l6,0 0,6 -6,0 0,-6z M24,90l6,0 0,6 -6,0 0,-6z M36,90l6,0 0,6 -6,0 0,-6z M48,90l6,0 0,6 -6,0 0,-6z M54,90l6,0 0,6 -6,0 0,-6z M66,90l6,0 0,6 -6,0 0,-6z M72,90l6,0 0,6 -6,0 0,-6z M90,90l6,0 0,6 -6,0 0,-6z M102,90l6,0 0,6 -6,0 0,-6z M108,90l6,0 0,6 -6,0 0,-6z M120,90l6,0 0,6 -6,0 0,-6z M150,90l6,0 0,6 -6,0 0,-6z M156,90l6,0 0,6 -6,0 0,-6z M162,90l6,0 0,6 -6,0 0,-6z M168,90l6,0 0,6 -6,0 0,-6z M186,90l6,0 0,6 -6,0 0,-6z M198,90l6,0 0,6 -6,0 0,-6z M210,90l6,0 0,6 -6,0 0,-6z M216,90l6,0 0,6 -6,0 0,-6z M222,90l6,0 0,6 -6,0 0,-6z M228,90l6,0 0,6 -6,0 0,-6z M234,90l6,0 0,6 -6,0 0,-6z M60,96l6,0 0,6 -6,0 0,-6z M66,96l6,0 0,6 -6,0 0,-6z M84,96l6,0 0,6 -6,0 0,-6z M90,96l6,0 0,6 -6,0 0,-6z M102,96l6,0 0,6 -6,0 0,-6z M114,96l6,0 0,6 -6,0 0,-6z M120,96l6,0 0,6 -6,0 0,-6z M132,96l6,0 0,6 -6,0 0,-6z M138,96l6,0 0,6 -6,0 0,-6z M162,96l6,0 0,6 -6,0 0,-6z M174,96l6,0 0,6 -6,0 0,-6z M180,96l6,0 0,6 -6,0 0,-6z M198,96l6,0 0,6 -6,0 0,-6z M204,96l6,0 0,6 -6,0 0,-6z M210,96l6,0 0,6 -6,0 0,-6z M216,96l6,0 0,6 -6,0 0,-6z M234,96l6,0 0,6 -6,0 0,-6z M18,102l6,0 0,6 -6,0 0,-6z M36,102l6,0 0,6 -6,0 0,-6z M54,102l6,0 0,6 -6,0 0,-6z M72,102l6,0 0,6 -6,0 0,-6z M78,102l6,0 0,6 -6,0 0,-6z M84,102l6,0 0,6 -6,0 0,-6z M96,102l6,0 0,6 -6,0 0,-6z M108,102l6,0 0,6 -6,0 0,-6z M114,102l6,0 0,6 -6,0 0,-6z M126,102l6,0 0,6 -6,0 0,-6z M132,102l6,0 0,6 -6,0 0,-6z M138,102l6,0 0,6 -6,0 0,-6z M150,102l6,0 0,6 -6,0 0,-6z M186,102l6,0 0,6 -6,0 0,-6z M198,102l6,0 0,6 -6,0 0,-6z M216,102l6,0 0,6 -6,0 0,-6z M222,102l6,0 0,6 -6,0 0,-6z M228,102l6,0 0,6 -6,0 0,-6z M24,108l6,0 0,6 -6,0 0,-6z M36,108l6,0 0,6 -6,0 0,-6z M66,108l6,0 0,6 -6,0 0,-6z M72,108l6,0 0,6 -6,0 0,-6z M78,108l6,0 0,6 -6,0 0,-6z M84,108l6,0 0,6 -6,0 0,-6z M102,108l6,0 0,6 -6,0 0,-6z M114,108l6,0 0,6 -6,0 0,-6z M126,108l6,0 0,6 -6,0 0,-6z M138,108l6,0 0,6 -6,0 0,-6z M144,108l6,0 0,6 -6,0 0,-6z M150,108l6,0 0,6 -6,0 0,-6z M210,108l6,0 0,6 -6,0 0,-6z M216,108l6,0 0,6 -6,0 0,-6z M228,108l6,0 0,6 -6,0 0,-6z M234,108l6,0 0,6 -6,0 0,-6z M36,114l6,0 0,6 -6,0 0,-6z M42,114l6,0 0,6 -6,0 0,-6z M48,114l6,0 0,6 -6,0 0,-6z M54,114l6,0 0,6 -6,0 0,-6z M60,114l6,0 0,6 -6,0 0,-6z M72,114l6,0 0,6 -6,0 0,-6z M78,114l6,0 0,6 -6,0 0,-6z M90,114l6,0 0,6 -6,0 0,-6z M102,114l6,0 0,6 -6,0 0,-6z M108,114l6,0 0,6 -6,0 0,-6z M126,114l6,0 0,6 -6,0 0,-6z M138,114l6,0 0,6 -6,0 0,-6z M144,114l6,0 0,6 -6,0 0,-6z M150,114l6,0 0,6 -6,0 0,-6z M156,114l6,0 0,6 -6,0 0,-6z M168,114l6,0 0,6 -6,0 0,-6z M192,114l6,0 0,6 -6,0 0,-6z M222,114l6,0 0,6 -6,0 0,-6z M228,114l6,0 0,6 -6,0 0,-6z M234,114l6,0 0,6 -6,0 0,-6z M24,120l6,0 0,6 -6,0 0,-6z M30,120l6,0 0,6 -6,0 0,-6z M42,120l6,0 0,6 -6,0 0,-6z M60,120l6,0 0,6 -6,0 0,-6z M102,120l6,0 0,6 -6,0 0,-6z M114,120l6,0 0,6 -6,0 0,-6z M138,120l6,0 0,6 -6,0 0,-6z M150,120l6,0 0,6 -6,0 0,-6z M156,120l6,0 0,6 -6,0 0,-6z M162,120l6,0 0,6 -6,0 0,-6z M168,120l6,0 0,6 -6,0 0,-6z M174,120l6,0 0,6 -6,0 0,-6z M180,120l6,0 0,6 -6,0 0,-6z M186,120l6,0 0,6 -6,0 0,-6z M198,120l6,0 0,6 -6,0 0,-6z M222,120l6,0 0,6 -6,0 0,-6z M234,120l6,0 0,6 -6,0 0,-6z M18,126l6,0 0,6 -6,0 0,-6z M24,126l6,0 0,6 -6,0 0,-6z M42,126l6,0 0,6 -6,0 0,-6z M54,126l6,0 0,6 -6,0 0,-6z M66,126l6,0 0,6 -6,0 0,-6z M78,126l6,0 0,6 -6,0 0,-6z M96,126l6,0 0,6 -6,0 0,-6z M102,126l6,0 0,6 -6,0 0,-6z M108,126l6,0 0,6 -6,0 0,-6z M114,126l6,0 0,6 -6,0 0,-6z M126,126l6,0 0,6 -6,0 0,-6z M138,126l6,0 0,6 -6,0 0,-6z M144,126l6,0 0,6 -6,0 0,-6z M150,126l6,0 0,6 -6,0 0,-6z M168,126l6,0 0,6 -6,0 0,-6z M180,126l6,0 0,6 -6,0 0,-6z M198,126l6,0 0,6 -6,0 0,-6z M210,126l6,0 0,6 -6,0 0,-6z M216,126l6,0 0,6 -6,0 0,-6z M222,126l6,0 0,6 -6,0 0,-6z M228,126l6,0 0,6 -6,0 0,-6z M234,126l6,0 0,6 -6,0 0,-6z M18,132l6,0 0,6 -6,0 0,-6z M24,132l6,0 0,6 -6,0 0,-6z M30,132l6,0 0,6 -6,0 0,-6z M36,132l6,0 0,6 -6,0 0,-6z M48,132l6,0 0,6 -6,0 0,-6z M66,132l6,0 0,6 -6,0 0,-6z M78,132l6,0 0,6 -6,0 0,-6z M84,132l6,0 0,6 -6,0 0,-6z M96,132l6,0 0,6 -6,0 0,-6z M102,132l6,0 0,6 -6,0 0,-6z M114,132l6,0 0,6 -6,0 0,-6z M120,132l6,0 0,6 -6,0 0,-6z M126,132l6,0 0,6 -6,0 0,-6z M156,132l6,0 0,6 -6,0 0,-6z M180,132l6,0 0,6 -6,0 0,-6z M186,132l6,0 0,6 -6,0 0,-6z M192,132l6,0 0,6 -6,0 0,-6z M198,132l6,0 0,6 -6,0 0,-6z M210,132l6,0 0,6 -6,0 0,-6z M228,132l6,0 0,6 -6,0 0,-6z M30,138l6,0 0,6 -6,0 0,-6z M54,138l6,0 0,6 -6,0 0,-6z M60,138l6,0 0,6 -6,0 0,-6z M66,138l6,0 0,6 -6,0 0,-6z M72,138l6,0 0,6 -6,0 0,-6z M96,138l6,0 0,6 -6,0 0,-6z M102,138l6,0 0,6 -6,0 0,-6z M108,138l6,0 0,6 -6,0 0,-6z M120,138l6,0 0,6 -6,0 0,-6z M126,138l6,0 0,6 -6,0 0,-6z M144,138l6,0 0,6 -6,0 0,-6z M174,138l6,0 0,6 -6,0 0,-6z M180,138l6,0 0,6 -6,0 0,-6z M186,138l6,0 0,6 -6,0 0,-6z M204,138l6,0 0,6 -6,0 0,-6z M210,138l6,0 0,6 -6,0 0,-6z M216,138l6,0 0,6 -6,0 0,-6z M228,138l6,0 0,6 -6,0 0,-6z M18,144l6,0 0,6 -6,0 0,-6z M24,144l6,0 0,6 -6,0 0,-6z M30,144l6,0 0,6 -6,0 0,-6z M36,144l6,0 0,6 -6,0 0,-6z M60,144l6,0 0,6 -6,0 0,-6z M72,144l6,0 0,6 -6,0 0,-6z M114,144l6,0 0,6 -6,0 0,-6z M132,144l6,0 0,6 -6,0 0,-6z M138,144l6,0 0,6 -6,0 0,-6z M144,144l6,0 0,6 -6,0 0,-6z M156,144l6,0 0,6 -6,0 0,-6z M174,144l6,0 0,6 -6,0 0,-6z M186,144l6,0 0,6 -6,0 0,-6z M192,144l6,0 0,6 -6,0 0,-6z M216,144l6,0 0,6 -6,0 0,-6z M222,144l6,0 0,6 -6,0 0,-6z M228,144l6,0 0,6 -6,0 0,-6z M24,150l6,0 0,6 -6,0 0,-6z M48,150l6,0 0,6 -6,0 0,-6z M54,150l6,0 0,6 -6,0 0,-6z M60,150l6,0 0,6 -6,0 0,-6z M78,150l6,0 0,6 -6,0 0,-6z M102,150l6,0 0,6 -6,0 0,-6z M150,150l6,0 0,6 -6,0 0,-6z M156,150l6,0 0,6 -6,0 0,-6z M162,150l6,0 0,6 -6,0 0,-6z M192,150l6,0 0,6 -6,0 0,-6z M210,150l6,0 0,6 -6,0 0,-6z M222,150l6,0 0,6 -6,0 0,-6z M18,156l6,0 0,6 -6,0 0,-6z M24,156l6,0 0,6 -6,0 0,-6z M30,156l6,0 0,6 -6,0 0,-6z M36,156l6,0 0,6 -6,0 0,-6z M42,156l6,0 0,6 -6,0 0,-6z M60,156l6,0 0,6 -6,0 0,-6z M66,156l6,0 0,6 -6,0 0,-6z M84,156l6,0 0,6 -6,0 0,-6z M90,156l6,0 0,6 -6,0 0,-6z M96,156l6,0 0,6 -6,0 0,-6z M102,156l6,0 0,6 -6,0 0,-6z M108,156l6,0 0,6 -6,0 0,-6z M114,156l6,0 0,6 -6,0 0,-6z M126,156l6,0 0,6 -6,0 0,-6z M132,156l6,0 0,6 -6,0 0,-6z M162,156l6,0 0,6 -6,0 0,-6z M168,156l6,0 0,6 -6,0 0,-6z M180,156l6,0 0,6 -6,0 0,-6z M186,156l6,0 0,6 -6,0 0,-6z M192,156l6,0 0,6 -6,0 0,-6z M210,156l6,0 0,6 -6,0 0,-6z M222,156l6,0 0,6 -6,0 0,-6z M234,156l6,0 0,6 -6,0 0,-6z M48,162l6,0 0,6 -6,0 0,-6z M54,162l6,0 0,6 -6,0 0,-6z M66,162l6,0 0,6 -6,0 0,-6z M78,162l6,0 0,6 -6,0 0,-6z M84,162l6,0 0,6 -6,0 0,-6z M108,162l6,0 0,6 -6,0 0,-6z M120,162l6,0 0,6 -6,0 0,-6z M126,162l6,0 0,6 -6,0 0,-6z M150,162l6,0 0,6 -6,0 0,-6z M156,162l6,0 0,6 -6,0 0,-6z M162,162l6,0 0,6 -6,0 0,-6z M168,162l6,0 0,6 -6,0 0,-6z M174,162l6,0 0,6 -6,0 0,-6z M180,162l6,0 0,6 -6,0 0,-6z M198,162l6,0 0,6 -6,0 0,-6z M210,162l6,0 0,6 -6,0 0,-6z M216,162l6,0 0,6 -6,0 0,-6z M222,162l6,0 0,6 -6,0 0,-6z M234,162l6,0 0,6 -6,0 0,-6z M36,168l6,0 0,6 -6,0 0,-6z M60,168l6,0 0,6 -6,0 0,-6z M84,168l6,0 0,6 -6,0 0,-6z M96,168l6,0 0,6 -6,0 0,-6z M108,168l6,0 0,6 -6,0 0,-6z M120,168l6,0 0,6 -6,0 0,-6z M132,168l6,0 0,6 -6,0 0,-6z M150,168l6,0 0,6 -6,0 0,-6z M156,168l6,0 0,6 -6,0 0,-6z M162,168l6,0 0,6 -6,0 0,-6z M174,168l6,0 0,6 -6,0 0,-6z M180,168l6,0 0,6 -6,0 0,-6z M198,168l6,0 0,6 -6,0 0,-6z M210,168l6,0 0,6 -6,0 0,-6z M228,168l6,0 0,6 -6,0 0,-6z M234,168l6,0 0,6 -6,0 0,-6z M24,174l6,0 0,6 -6,0 0,-6z M30,174l6,0 0,6 -6,0 0,-6z M48,174l6,0 0,6 -6,0 0,-6z M54,174l6,0 0,6 -6,0 0,-6z M60,174l6,0 0,6 -6,0 0,-6z M72,174l6,0 0,6 -6,0 0,-6z M90,174l6,0 0,6 -6,0 0,-6z M102,174l6,0 0,6 -6,0 0,-6z M132,174l6,0 0,6 -6,0 0,-6z M144,174l6,0 0,6 -6,0 0,-6z M150,174l6,0 0,6 -6,0 0,-6z M168,174l6,0 0,6 -6,0 0,-6z M186,174l6,0 0,6 -6,0 0,-6z M192,174l6,0 0,6 -6,0 0,-6z M204,174l6,0 0,6 -6,0 0,-6z M210,174l6,0 0,6 -6,0 0,-6z M18,180l6,0 0,6 -6,0 0,-6z M36,180l6,0 0,6 -6,0 0,-6z M42,180l6,0 0,6 -6,0 0,-6z M48,180l6,0 0,6 -6,0 0,-6z M60,180l6,0 0,6 -6,0 0,-6z M72,180l6,0 0,6 -6,0 0,-6z M78,180l6,0 0,6 -6,0 0,-6z M90,180l6,0 0,6 -6,0 0,-6z M96,180l6,0 0,6 -6,0 0,-6z M108,180l6,0 0,6 -6,0 0,-6z M114,180l6,0 0,6 -6,0 0,-6z M126,180l6,0 0,6 -6,0 0,-6z M132,180l6,0 0,6 -6,0 0,-6z M138,180l6,0 0,6 -6,0 0,-6z M144,180l6,0 0,6 -6,0 0,-6z M150,180l6,0 0,6 -6,0 0,-6z M156,180l6,0 0,6 -6,0 0,-6z M162,180l6,0 0,6 -6,0 0,-6z M174,180l6,0 0,6 -6,0 0,-6z M180,180l6,0 0,6 -6,0 0,-6z M186,180l6,0 0,6 -6,0 0,-6z M192,180l6,0 0,6 -6,0 0,-6z M198,180l6,0 0,6 -6,0 0,-6z M228,180l6,0 0,6 -6,0 0,-6z M30,186l6,0 0,6 -6,0 0,-6z M54,186l6,0 0,6 -6,0 0,-6z M60,186l6,0 0,6 -6,0 0,-6z M84,186l6,0 0,6 -6,0 0,-6z M120,186l6,0 0,6 -6,0 0,-6z M126,186l6,0 0,6 -6,0 0,-6z M132,186l6,0 0,6 -6,0 0,-6z M138,186l6,0 0,6 -6,0 0,-6z M144,186l6,0 0,6 -6,0 0,-6z M150,186l6,0 0,6 -6,0 0,-6z M156,186l6,0 0,6 -6,0 0,-6z M168,186l6,0 0,6 -6,0 0,-6z M180,186l6,0 0,6 -6,0 0,-6z M186,186l6,0 0,6 -6,0 0,-6z M192,186l6,0 0,6 -6,0 0,-6z M198,186l6,0 0,6 -6,0 0,-6z M204,186l6,0 0,6 -6,0 0,-6z M210,186l6,0 0,6 -6,0 0,-6z M216,186l6,0 0,6 -6,0 0,-6z M228,186l6,0 0,6 -6,0 0,-6z M234,186l6,0 0,6 -6,0 0,-6z M66,192l6,0 0,6 -6,0 0,-6z M72,192l6,0 0,6 -6,0 0,-6z M90,192l6,0 0,6 -6,0 0,-6z M96,192l6,0 0,6 -6,0 0,-6z M108,192l6,0 0,6 -6,0 0,-6z M120,192l6,0 0,6 -6,0 0,-6z M138,192l6,0 0,6 -6,0 0,-6z M144,192l6,0 0,6 -6,0 0,-6z M150,192l6,0 0,6 -6,0 0,-6z M156,192l6,0 0,6 -6,0 0,-6z M168,192l6,0 0,6 -6,0 0,-6z M174,192l6,0 0,6 -6,0 0,-6z M186,192l6,0 0,6 -6,0 0,-6z M210,192l6,0 0,6 -6,0 0,-6z M222,192l6,0 0,6 -6,0 0,-6z M228,192l6,0 0,6 -6,0 0,-6z M234,192l6,0 0,6 -6,0 0,-6z M18,198l6,0 0,6 -6,0 0,-6z M24,198l6,0 0,6 -6,0 0,-6z M30,198l6,0 0,6 -6,0 0,-6z M36,198l6,0 0,6 -6,0 0,-6z M42,198l6,0 0,6 -6,0 0,-6z M48,198l6,0 0,6 -6,0 0,-6z M54,198l6,0 0,6 -6,0 0,-6z M78,198l6,0 0,6 -6,0 0,-6z M84,198l6,0 0,6 -6,0 0,-6z M90,198l6,0 0,6 -6,0 0,-6z M108,198l6,0 0,6 -6,0 0,-6z M120,198l6,0 0,6 -6,0 0,-6z M126,198l6,0 0,6 -6,0 0,-6z M144,198l6,0 0,6 -6,0 0,-6z M162,198l6,0 0,6 -6,0 0,-6z M174,198l6,0 0,6 -6,0 0,-6z M186,198l6,0 0,6 -6,0 0,-6z M198,198l6,0 0,6 -6,0 0,-6z M210,198l6,0 0,6 -6,0 0,-6z M216,198l6,0 0,6 -6,0 0,-6z M228,198l6,0 0,6 -6,0 0,-6z M234,198l6,0 0,6 -6,0 0,-6z M18,204l6,0 0,6 -6,0 0,-6z M54,204l6,0 0,6 -6,0 0,-6z M72,204l6,0 0,6 -6,0 0,-6z M78,204l6,0 0,6 -6,0 0,-6z M90,204l6,0 0,6 -6,0 0,-6z M108,204l6,0 0,6 -6,0 0,-6z M120,204l6,0 0,6 -6,0 0,-6z M132,204l6,0 0,6 -6,0 0,-6z M138,204l6,0 0,6 -6,0 0,-6z M174,204l6,0 0,6 -6,0 0,-6z M186,204l6,0 0,6 -6,0 0,-6z M210,204l6,0 0,6 -6,0 0,-6z M216,204l6,0 0,6 -6,0 0,-6z M228,204l6,0 0,6 -6,0 0,-6z M234,204l6,0 0,6 -6,0 0,-6z M18,210l6,0 0,6 -6,0 0,-6z M30,210l6,0 0,6 -6,0 0,-6z M36,210l6,0 0,6 -6,0 0,-6z M42,210l6,0 0,6 -6,0 0,-6z M54,210l6,0 0,6 -6,0 0,-6z M78,210l6,0 0,6 -6,0 0,-6z M84,210l6,0 0,6 -6,0 0,-6z M90,210l6,0 0,6 -6,0 0,-6z M96,210l6,0 0,6 -6,0 0,-6z M120,210l6,0 0,6 -6,0 0,-6z M126,210l6,0 0,6 -6,0 0,-6z M132,210l6,0 0,6 -6,0 0,-6z M144,210l6,0 0,6 -6,0 0,-6z M150,210l6,0 0,6 -6,0 0,-6z M156,210l6,0 0,6 -6,0 0,-6z M162,210l6,0 0,6 -6,0 0,-6z M174,210l6,0 0,6 -6,0 0,-6z M186,210l6,0 0,6 -6,0 0,-6z M192,210l6,0 0,6 -6,0 0,-6z M198,210l6,0 0,6 -6,0 0,-6z M204,210l6,0 0,6 -6,0 0,-6z M210,210l6,0 0,6 -6,0 0,-6z M216,210l6,0 0,6 -6,0 0,-6z M18,216l6,0 0,6 -6,0 0,-6z M30,216l6,0 0,6 -6,0 0,-6z M36,216l6,0 0,6 -6,0 0,-6z M42,216l6,0 0,6 -6,0 0,-6z M54,216l6,0 0,6 -6,0 0,-6z M66,216l6,0 0,6 -6,0 0,-6z M78,216l6,0 0,6 -6,0 0,-6z M90,216l6,0 0,6 -6,0 0,-6z M96,216l6,0 0,6 -6,0 0,-6z M102,216l6,0 0,6 -6,0 0,-6z M114,216l6,0 0,6 -6,0 0,-6z M126,216l6,0 0,6 -6,0 0,-6z M132,216l6,0 0,6 -6,0 0,-6z M144,216l6,0 0,6 -6,0 0,-6z M156,216l6,0 0,6 -6,0 0,-6z M162,216l6,0 0,6 -6,0 0,-6z M180,216l6,0 0,6 -6,0 0,-6z M186,216l6,0 0,6 -6,0 0,-6z M198,216l6,0 0,6 -6,0 0,-6z M210,216l6,0 0,6 -6,0 0,-6z M216,216l6,0 0,6 -6,0 0,-6z M228,216l6,0 0,6 -6,0 0,-6z M234,216l6,0 0,6 -6,0 0,-6z M18,222l6,0 0,6 -6,0 0,-6z M30,222l6,0 0,6 -6,0 0,-6z M36,222l6,0 0,6 -6,0 0,-6z M42,222l6,0 0,6 -6,0 0,-6z M54,222l6,0 0,6 -6,0 0,-6z M66,222l6,0 0,6 -6,0 0,-6z M72,222l6,0 0,6 -6,0 0,-6z M84,222l6,0 0,6 -6,0 0,-6z M90,222l6,0 0,6 -6,0 0,-6z M96,222l6,0 0,6 -6,0 0,-6z M114,222l6,0 0,6 -6,0 0,-6z M120,222l6,0 0,6 -6,0 0,-6z M138,222l6,0 0,6 -6,0 0,-6z M144,222l6,0 0,6 -6,0 0,-6z M156,222l6,0 0,6 -6,0 0,-6z M198,222l6,0 0,6 -6,0 0,-6z M210,222l6,0 0,6 -6,0 0,-6z M222,222l6,0 0,6 -6,0 0,-6z M18,228l6,0 0,6 -6,0 0,-6z M54,228l6,0 0,6 -6,0 0,-6z M66,228l6,0 0,6 -6,0 0,-6z M126,228l6,0 0,6 -6,0 0,-6z M132,228l6,0 0,6 -6,0 0,-6z M138,228l6,0 0,6 -6,0 0,-6z M150,228l6,0 0,6 -6,0 0,-6z M156,228l6,0 0,6 -6,0 0,-6z M168,228l6,0 0,6 -6,0 0,-6z M174,228l6,0 0,6 -6,0 0,-6z M192,228l6,0 0,6 -6,0 0,-6z M204,228l6,0 0,6 -6,0 0,-6z M210,228l6,0 0,6 -6,0 0,-6z M222,228l6,0 0,6 -6,0 0,-6z M18,234l6,0 0,6 -6,0 0,-6z M24,234l6,0 0,6 -6,0 0,-6z M30,234l6,0 0,6 -6,0 0,-6z M36,234l6,0 0,6 -6,0 0,-6z M42,234l6,0 0,6 -6,0 0,-6z M48,234l6,0 0,6 -6,0 0,-6z M54,234l6,0 0,6 -6,0 0,-6z M66,234l6,0 0,6 -6,0 0,-6z M78,234l6,0 0,6 -6,0 0,-6z M90,234l6,0 0,6 -6,0 0,-6z M102,234l6,0 0,6 -6,0 0,-6z M120,234l6,0 0,6 -6,0 0,-6z M132,234l6,0 0,6 -6,0 0,-6z M162,234l6,0 0,6 -6,0 0,-6z M168,234l6,0 0,6 -6,0 0,-6z M180,234l6,0 0,6 -6,0 0,-6z M198,234l6,0 0,6 -6,0 0,-6z M204,234l6,0 0,6 -6,0 0,-6z M210,234l6,0 0,6 -6,0 0,-6z M216,234l6,0 0,6 -6,0 0,-6z M222,234l6,0 0,6 -6,0 0,-6z M228,234l6,0 0,6 -6,0 0,-6z M234,234l6,0 0,6 -6,0 0,-6z " stroke="transparent" fill="black"/><text
     xml:space="preserve"
     style="font-style:normal;font-weight:normal;font-size:14.79809952px;line-height:1.25;font-family:sans-serif;letter-spacing:0px;word-spacing:0px;fill:#000000;fill-opacity:1;stroke:none;stroke-width:0.36995247"
     x="51.262955"
     y="239.21269"
     id="qr-label"
     transform="scale(0.92825188,1.0772938)"><title
       id="title22">qr-label</title><tspan
       sodipodi:role="line"
       id="tspan14"
       x="51.262955"
       y="239.21269"
       style="letter-spacing:-0.26368171px;stroke-width:0.36995247">154-17Ramdas Jamre</tspan></text></svg>