<svg version="1.1" xmlns="http://www.w3.org/2000/svg" width="258px" height="258px" viewBox="0 0 258 258"  preserveAspectRatio="xMinYMin meet"><rect width="100%" height="100%" fill="white" cx="0" cy="0"/><path d="M18,18l6,0 0,6 -6,0 0,-6z M24,18l6,0 0,6 -6,0 0,-6z M30,18l6,0 0,6 -6,0 0,-6z M36,18l6,0 0,6 -6,0 0,-6z M42,18l6,0 0,6 -6,0 0,-6z M48,18l6,0 0,6 -6,0 0,-6z M54,18l6,0 0,6 -6,0 0,-6z M66,18l6,0 0,6 -6,0 0,-6z M84,18l6,0 0,6 -6,0 0,-6z M90,18l6,0 0,6 -6,0 0,-6z M102,18l6,0 0,6 -6,0 0,-6z M108,18l6,0 0,6 -6,0 0,-6z M114,18l6,0 0,6 -6,0 0,-6z M120,18l6,0 0,6 -6,0 0,-6z M150,18l6,0 0,6 -6,0 0,-6z M168,18l6,0 0,6 -6,0 0,-6z M174,18l6,0 0,6 -6,0 0,-6z M198,18l6,0 0,6 -6,0 0,-6z M204,18l6,0 0,6 -6,0 0,-6z M210,18l6,0 0,6 -6,0 0,-6z M216,18l6,0 0,6 -6,0 0,-6z M222,18l6,0 0,6 -6,0 0,-6z M228,18l6,0 0,6 -6,0 0,-6z M234,18l6,0 0,6 -6,0 0,-6z M18,24l6,0 0,6 -6,0 0,-6z M54,24l6,0 0,6 -6,0 0,-6z M72,24l6,0 0,6 -6,0 0,-6z M78,24l6,0 0,6 -6,0 0,-6z M114,24l6,0 0,6 -6,0 0,-6z M120,24l6,0 0,6 -6,0 0,-6z M126,24l6,0 0,6 -6,0 0,-6z M132,24l6,0 0,6 -6,0 0,-6z M144,24l6,0 0,6 -6,0 0,-6z M150,24l6,0 0,6 -6,0 0,-6z M162,24l6,0 0,6 -6,0 0,-6z M168,24l6,0 0,6 -6,0 0,-6z M198,24l6,0 0,6 -6,0 0,-6z M234,24l6,0 0,6 -6,0 0,-6z M18,30l6,0 0,6 -6,0 0,-6z M30,30l6,0 0,6 -6,0 0,-6z M36,30l6,0 0,6 -6,0 0,-6z M42,30l6,0 0,6 -6,0 0,-6z M54,30l6,0 0,6 -6,0 0,-6z M78,30l6,0 0,6 -6,0 0,-6z M90,30l6,0 0,6 -6,0 0,-6z M108,30l6,0 0,6 -6,0 0,-6z M126,30l6,0 0,6 -6,0 0,-6z M132,30l6,0 0,6 -6,0 0,-6z M144,30l6,0 0,6 -6,0 0,-6z M150,30l6,0 0,6 -6,0 0,-6z M156,30l6,0 0,6 -6,0 0,-6z M162,30l6,0 0,6 -6,0 0,-6z M168,30l6,0 0,6 -6,0 0,-6z M174,30l6,0 0,6 -6,0 0,-6z M180,30l6,0 0,6 -6,0 0,-6z M198,30l6,0 0,6 -6,0 0,-6z M210,30l6,0 0,6 -6,0 0,-6z M216,30l6,0 0,6 -6,0 0,-6z M222,30l6,0 0,6 -6,0 0,-6z M234,30l6,0 0,6 -6,0 0,-6z M18,36l6,0 0,6 -6,0 0,-6z M30,36l6,0 0,6 -6,0 0,-6z M36,36l6,0 0,6 -6,0 0,-6z M42,36l6,0 0,6 -6,0 0,-6z M54,36l6,0 0,6 -6,0 0,-6z M90,36l6,0 0,6 -6,0 0,-6z M108,36l6,0 0,6 -6,0 0,-6z M120,36l6,0 0,6 -6,0 0,-6z M138,36l6,0 0,6 -6,0 0,-6z M144,36l6,0 0,6 -6,0 0,-6z M162,36l6,0 0,6 -6,0 0,-6z M168,36l6,0 0,6 -6,0 0,-6z M174,36l6,0 0,6 -6,0 0,-6z M198,36l6,0 0,6 -6,0 0,-6z M210,36l6,0 0,6 -6,0 0,-6z M216,36l6,0 0,6 -6,0 0,-6z M222,36l6,0 0,6 -6,0 0,-6z M234,36l6,0 0,6 -6,0 0,-6z M18,42l6,0 0,6 -6,0 0,-6z M30,42l6,0 0,6 -6,0 0,-6z M36,42l6,0 0,6 -6,0 0,-6z M42,42l6,0 0,6 -6,0 0,-6z M54,42l6,0 0,6 -6,0 0,-6z M72,42l6,0 0,6 -6,0 0,-6z M84,42l6,0 0,6 -6,0 0,-6z M102,42l6,0 0,6 -6,0 0,-6z M114,42l6,0 0,6 -6,0 0,-6z M120,42l6,0 0,6 -6,0 0,-6z M126,42l6,0 0,6 -6,0 0,-6z M132,42l6,0 0,6 -6,0 0,-6z M144,42l6,0 0,6 -6,0 0,-6z M162,42l6,0 0,6 -6,0 0,-6z M174,42l6,0 0,6 -6,0 0,-6z M186,42l6,0 0,6 -6,0 0,-6z M198,42l6,0 0,6 -6,0 0,-6z M210,42l6,0 0,6 -6,0 0,-6z M216,42l6,0 0,6 -6,0 0,-6z M222,42l6,0 0,6 -6,0 0,-6z M234,42l6,0 0,6 -6,0 0,-6z M18,48l6,0 0,6 -6,0 0,-6z M54,48l6,0 0,6 -6,0 0,-6z M78,48l6,0 0,6 -6,0 0,-6z M90,48l6,0 0,6 -6,0 0,-6z M114,48l6,0 0,6 -6,0 0,-6z M120,48l6,0 0,6 -6,0 0,-6z M138,48l6,0 0,6 -6,0 0,-6z M150,48l6,0 0,6 -6,0 0,-6z M156,48l6,0 0,6 -6,0 0,-6z M162,48l6,0 0,6 -6,0 0,-6z M168,48l6,0 0,6 -6,0 0,-6z M198,48l6,0 0,6 -6,0 0,-6z M234,48l6,0 0,6 -6,0 0,-6z M18,54l6,0 0,6 -6,0 0,-6z M24,54l6,0 0,6 -6,0 0,-6z M30,54l6,0 0,6 -6,0 0,-6z M36,54l6,0 0,6 -6,0 0,-6z M42,54l6,0 0,6 -6,0 0,-6z M48,54l6,0 0,6 -6,0 0,-6z M54,54l6,0 0,6 -6,0 0,-6z M66,54l6,0 0,6 -6,0 0,-6z M78,54l6,0 0,6 -6,0 0,-6z M90,54l6,0 0,6 -6,0 0,-6z M102,54l6,0 0,6 -6,0 0,-6z M114,54l6,0 0,6 -6,0 0,-6z M126,54l6,0 0,6 -6,0 0,-6z M138,54l6,0 0,6 -6,0 0,-6z M150,54l6,0 0,6 -6,0 0,-6z M162,54l6,0 0,6 -6,0 0,-6z M174,54l6,0 0,6 -6,0 0,-6z M186,54l6,0 0,6 -6,0 0,-6z M198,54l6,0 0,6 -6,0 0,-6z M204,54l6,0 0,6 -6,0 0,-6z M210,54l6,0 0,6 -6,0 0,-6z M216,54l6,0 0,6 -6,0 0,-6z M222,54l6,0 0,6 -6,0 0,-6z M228,54l6,0 0,6 -6,0 0,-6z M234,54l6,0 0,6 -6,0 0,-6z M66,60l6,0 0,6 -6,0 0,-6z M78,60l6,0 0,6 -6,0 0,-6z M84,60l6,0 0,6 -6,0 0,-6z M96,60l6,0 0,6 -6,0 0,-6z M108,60l6,0 0,6 -6,0 0,-6z M132,60l6,0 0,6 -6,0 0,-6z M150,60l6,0 0,6 -6,0 0,-6z M168,60l6,0 0,6 -6,0 0,-6z M174,60l6,0 0,6 -6,0 0,-6z M18,66l6,0 0,6 -6,0 0,-6z M24,66l6,0 0,6 -6,0 0,-6z M36,66l6,0 0,6 -6,0 0,-6z M42,66l6,0 0,6 -6,0 0,-6z M54,66l6,0 0,6 -6,0 0,-6z M72,66l6,0 0,6 -6,0 0,-6z M78,66l6,0 0,6 -6,0 0,-6z M84,66l6,0 0,6 -6,0 0,-6z M96,66l6,0 0,6 -6,0 0,-6z M108,66l6,0 0,6 -6,0 0,-6z M114,66l6,0 0,6 -6,0 0,-6z M120,66l6,0 0,6 -6,0 0,-6z M126,66l6,0 0,6 -6,0 0,-6z M156,66l6,0 0,6 -6,0 0,-6z M162,66l6,0 0,6 -6,0 0,-6z M180,66l6,0 0,6 -6,0 0,-6z M186,66l6,0 0,6 -6,0 0,-6z M198,66l6,0 0,6 -6,0 0,-6z M234,66l6,0 0,6 -6,0 0,-6z M18,72l6,0 0,6 -6,0 0,-6z M36,72l6,0 0,6 -6,0 0,-6z M42,72l6,0 0,6 -6,0 0,-6z M66,72l6,0 0,6 -6,0 0,-6z M72,72l6,0 0,6 -6,0 0,-6z M90,72l6,0 0,6 -6,0 0,-6z M96,72l6,0 0,6 -6,0 0,-6z M108,72l6,0 0,6 -6,0 0,-6z M114,72l6,0 0,6 -6,0 0,-6z M126,72l6,0 0,6 -6,0 0,-6z M132,72l6,0 0,6 -6,0 0,-6z M144,72l6,0 0,6 -6,0 0,-6z M150,72l6,0 0,6 -6,0 0,-6z M156,72l6,0 0,6 -6,0 0,-6z M162,72l6,0 0,6 -6,0 0,-6z M168,72l6,0 0,6 -6,0 0,-6z M180,72l6,0 0,6 -6,0 0,-6z M210,72l6,0 0,6 -6,0 0,-6z M222,72l6,0 0,6 -6,0 0,-6z M24,78l6,0 0,6 -6,0 0,-6z M30,78l6,0 0,6 -6,0 0,-6z M36,78l6,0 0,6 -6,0 0,-6z M54,78l6,0 0,6 -6,0 0,-6z M60,78l6,0 0,6 -6,0 0,-6z M84,78l6,0 0,6 -6,0 0,-6z M96,78l6,0 0,6 -6,0 0,-6z M108,78l6,0 0,6 -6,0 0,-6z M126,78l6,0 0,6 -6,0 0,-6z M138,78l6,0 0,6 -6,0 0,-6z M144,78l6,0 0,6 -6,0 0,-6z M150,78l6,0 0,6 -6,0 0,-6z M156,78l6,0 0,6 -6,0 0,-6z M162,78l6,0 0,6 -6,0 0,-6z M168,78l6,0 0,6 -6,0 0,-6z M174,78l6,0 0,6 -6,0 0,-6z M180,78l6,0 0,6 -6,0 0,-6z M192,78l6,0 0,6 -6,0 0,-6z M198,78l6,0 0,6 -6,0 0,-6z M210,78l6,0 0,6 -6,0 0,-6z M216,78l6,0 0,6 -6,0 0,-6z M222,78l6,0 0,6 -6,0 0,-6z M228,78l6,0 0,6 -6,0 0,-6z M234,78l6,0 0,6 -6,0 0,-6z M18,84l6,0 0,6 -6,0 0,-6z M36,84l6,0 0,6 -6,0 0,-6z M42,84l6,0 0,6 -6,0 0,-6z M72,84l6,0 0,6 -6,0 0,-6z M78,84l6,0 0,6 -6,0 0,-6z M84,84l6,0 0,6 -6,0 0,-6z M90,84l6,0 0,6 -6,0 0,-6z M96,84l6,0 0,6 -6,0 0,-6z M108,84l6,0 0,6 -6,0 0,-6z M120,84l6,0 0,6 -6,0 0,-6z M126,84l6,0 0,6 -6,0 0,-6z M162,84l6,0 0,6 -6,0 0,-6z M192,84l6,0 0,6 -6,0 0,-6z M204,84l6,0 0,6 -6,0 0,-6z M210,84l6,0 0,6 -6,0 0,-6z M222,84l6,0 0,6 -6,0 0,-6z M228,84l6,0 0,6 -6,0 0,-6z M18,90l6,0 0,6 -6,0 0,-6z M24,90l6,0 0,6 -6,0 0,-6z M48,90l6,0 0,6 -6,0 0,-6z M54,90l6,0 0,6 -6,0 0,-6z M66,90l6,0 0,6 -6,0 0,-6z M84,90l6,0 0,6 -6,0 0,-6z M90,90l6,0 0,6 -6,0 0,-6z M96,90l6,0 0,6 -6,0 0,-6z M114,90l6,0 0,6 -6,0 0,-6z M126,90l6,0 0,6 -6,0 0,-6z M138,90l6,0 0,6 -6,0 0,-6z M156,90l6,0 0,6 -6,0 0,-6z M162,90l6,0 0,6 -6,0 0,-6z M174,90l6,0 0,6 -6,0 0,-6z M180,90l6,0 0,6 -6,0 0,-6z M198,90l6,0 0,6 -6,0 0,-6z M204,90l6,0 0,6 -6,0 0,-6z M216,90l6,0 0,6 -6,0 0,-6z M228,90l6,0 0,6 -6,0 0,-6z M234,90l6,0 0,6 -6,0 0,-6z M18,96l6,0 0,6 -6,0 0,-6z M30,96l6,0 0,6 -6,0 0,-6z M48,96l6,0 0,6 -6,0 0,-6z M96,96l6,0 0,6 -6,0 0,-6z M102,96l6,0 0,6 -6,0 0,-6z M108,96l6,0 0,6 -6,0 0,-6z M120,96l6,0 0,6 -6,0 0,-6z M126,96l6,0 0,6 -6,0 0,-6z M156,96l6,0 0,6 -6,0 0,-6z M162,96l6,0 0,6 -6,0 0,-6z M168,96l6,0 0,6 -6,0 0,-6z M174,96l6,0 0,6 -6,0 0,-6z M180,96l6,0 0,6 -6,0 0,-6z M186,96l6,0 0,6 -6,0 0,-6z M204,96l6,0 0,6 -6,0 0,-6z M210,96l6,0 0,6 -6,0 0,-6z M216,96l6,0 0,6 -6,0 0,-6z M222,96l6,0 0,6 -6,0 0,-6z M18,102l6,0 0,6 -6,0 0,-6z M36,102l6,0 0,6 -6,0 0,-6z M42,102l6,0 0,6 -6,0 0,-6z M54,102l6,0 0,6 -6,0 0,-6z M60,102l6,0 0,6 -6,0 0,-6z M66,102l6,0 0,6 -6,0 0,-6z M84,102l6,0 0,6 -6,0 0,-6z M90,102l6,0 0,6 -6,0 0,-6z M96,102l6,0 0,6 -6,0 0,-6z M108,102l6,0 0,6 -6,0 0,-6z M132,102l6,0 0,6 -6,0 0,-6z M138,102l6,0 0,6 -6,0 0,-6z M144,102l6,0 0,6 -6,0 0,-6z M180,102l6,0 0,6 -6,0 0,-6z M192,102l6,0 0,6 -6,0 0,-6z M204,102l6,0 0,6 -6,0 0,-6z M210,102l6,0 0,6 -6,0 0,-6z M216,102l6,0 0,6 -6,0 0,-6z M222,102l6,0 0,6 -6,0 0,-6z M234,102l6,0 0,6 -6,0 0,-6z M18,108l6,0 0,6 -6,0 0,-6z M42,108l6,0 0,6 -6,0 0,-6z M48,108l6,0 0,6 -6,0 0,-6z M72,108l6,0 0,6 -6,0 0,-6z M84,108l6,0 0,6 -6,0 0,-6z M108,108l6,0 0,6 -6,0 0,-6z M114,108l6,0 0,6 -6,0 0,-6z M126,108l6,0 0,6 -6,0 0,-6z M132,108l6,0 0,6 -6,0 0,-6z M162,108l6,0 0,6 -6,0 0,-6z M174,108l6,0 0,6 -6,0 0,-6z M180,108l6,0 0,6 -6,0 0,-6z M186,108l6,0 0,6 -6,0 0,-6z M210,108l6,0 0,6 -6,0 0,-6z M222,108l6,0 0,6 -6,0 0,-6z M24,114l6,0 0,6 -6,0 0,-6z M42,114l6,0 0,6 -6,0 0,-6z M54,114l6,0 0,6 -6,0 0,-6z M60,114l6,0 0,6 -6,0 0,-6z M66,114l6,0 0,6 -6,0 0,-6z M72,114l6,0 0,6 -6,0 0,-6z M78,114l6,0 0,6 -6,0 0,-6z M102,114l6,0 0,6 -6,0 0,-6z M108,114l6,0 0,6 -6,0 0,-6z M114,114l6,0 0,6 -6,0 0,-6z M126,114l6,0 0,6 -6,0 0,-6z M138,114l6,0 0,6 -6,0 0,-6z M156,114l6,0 0,6 -6,0 0,-6z M162,114l6,0 0,6 -6,0 0,-6z M180,114l6,0 0,6 -6,0 0,-6z M186,114l6,0 0,6 -6,0 0,-6z M192,114l6,0 0,6 -6,0 0,-6z M198,114l6,0 0,6 -6,0 0,-6z M216,114l6,0 0,6 -6,0 0,-6z M222,114l6,0 0,6 -6,0 0,-6z M228,114l6,0 0,6 -6,0 0,-6z M24,120l6,0 0,6 -6,0 0,-6z M30,120l6,0 0,6 -6,0 0,-6z M36,120l6,0 0,6 -6,0 0,-6z M42,120l6,0 0,6 -6,0 0,-6z M60,120l6,0 0,6 -6,0 0,-6z M78,120l6,0 0,6 -6,0 0,-6z M84,120l6,0 0,6 -6,0 0,-6z M90,120l6,0 0,6 -6,0 0,-6z M96,120l6,0 0,6 -6,0 0,-6z M102,120l6,0 0,6 -6,0 0,-6z M108,120l6,0 0,6 -6,0 0,-6z M120,120l6,0 0,6 -6,0 0,-6z M126,120l6,0 0,6 -6,0 0,-6z M132,120l6,0 0,6 -6,0 0,-6z M138,120l6,0 0,6 -6,0 0,-6z M150,120l6,0 0,6 -6,0 0,-6z M168,120l6,0 0,6 -6,0 0,-6z M180,120l6,0 0,6 -6,0 0,-6z M192,120l6,0 0,6 -6,0 0,-6z M222,120l6,0 0,6 -6,0 0,-6z M18,126l6,0 0,6 -6,0 0,-6z M30,126l6,0 0,6 -6,0 0,-6z M54,126l6,0 0,6 -6,0 0,-6z M78,126l6,0 0,6 -6,0 0,-6z M84,126l6,0 0,6 -6,0 0,-6z M108,126l6,0 0,6 -6,0 0,-6z M114,126l6,0 0,6 -6,0 0,-6z M126,126l6,0 0,6 -6,0 0,-6z M132,126l6,0 0,6 -6,0 0,-6z M150,126l6,0 0,6 -6,0 0,-6z M156,126l6,0 0,6 -6,0 0,-6z M162,126l6,0 0,6 -6,0 0,-6z M168,126l6,0 0,6 -6,0 0,-6z M180,126l6,0 0,6 -6,0 0,-6z M186,126l6,0 0,6 -6,0 0,-6z M192,126l6,0 0,6 -6,0 0,-6z M198,126l6,0 0,6 -6,0 0,-6z M216,126l6,0 0,6 -6,0 0,-6z M228,126l6,0 0,6 -6,0 0,-6z M234,126l6,0 0,6 -6,0 0,-6z M24,132l6,0 0,6 -6,0 0,-6z M30,132l6,0 0,6 -6,0 0,-6z M48,132l6,0 0,6 -6,0 0,-6z M60,132l6,0 0,6 -6,0 0,-6z M66,132l6,0 0,6 -6,0 0,-6z M72,132l6,0 0,6 -6,0 0,-6z M78,132l6,0 0,6 -6,0 0,-6z M90,132l6,0 0,6 -6,0 0,-6z M102,132l6,0 0,6 -6,0 0,-6z M126,132l6,0 0,6 -6,0 0,-6z M132,132l6,0 0,6 -6,0 0,-6z M138,132l6,0 0,6 -6,0 0,-6z M156,132l6,0 0,6 -6,0 0,-6z M162,132l6,0 0,6 -6,0 0,-6z M168,132l6,0 0,6 -6,0 0,-6z M180,132l6,0 0,6 -6,0 0,-6z M210,132l6,0 0,6 -6,0 0,-6z M216,132l6,0 0,6 -6,0 0,-6z M30,138l6,0 0,6 -6,0 0,-6z M54,138l6,0 0,6 -6,0 0,-6z M60,138l6,0 0,6 -6,0 0,-6z M66,138l6,0 0,6 -6,0 0,-6z M78,138l6,0 0,6 -6,0 0,-6z M90,138l6,0 0,6 -6,0 0,-6z M96,138l6,0 0,6 -6,0 0,-6z M102,138l6,0 0,6 -6,0 0,-6z M108,138l6,0 0,6 -6,0 0,-6z M120,138l6,0 0,6 -6,0 0,-6z M132,138l6,0 0,6 -6,0 0,-6z M150,138l6,0 0,6 -6,0 0,-6z M174,138l6,0 0,6 -6,0 0,-6z M180,138l6,0 0,6 -6,0 0,-6z M186,138l6,0 0,6 -6,0 0,-6z M198,138l6,0 0,6 -6,0 0,-6z M210,138l6,0 0,6 -6,0 0,-6z M216,138l6,0 0,6 -6,0 0,-6z M234,138l6,0 0,6 -6,0 0,-6z M30,144l6,0 0,6 -6,0 0,-6z M72,144l6,0 0,6 -6,0 0,-6z M78,144l6,0 0,6 -6,0 0,-6z M102,144l6,0 0,6 -6,0 0,-6z M132,144l6,0 0,6 -6,0 0,-6z M144,144l6,0 0,6 -6,0 0,-6z M156,144l6,0 0,6 -6,0 0,-6z M174,144l6,0 0,6 -6,0 0,-6z M180,144l6,0 0,6 -6,0 0,-6z M186,144l6,0 0,6 -6,0 0,-6z M192,144l6,0 0,6 -6,0 0,-6z M210,144l6,0 0,6 -6,0 0,-6z M24,150l6,0 0,6 -6,0 0,-6z M30,150l6,0 0,6 -6,0 0,-6z M36,150l6,0 0,6 -6,0 0,-6z M48,150l6,0 0,6 -6,0 0,-6z M54,150l6,0 0,6 -6,0 0,-6z M66,150l6,0 0,6 -6,0 0,-6z M72,150l6,0 0,6 -6,0 0,-6z M90,150l6,0 0,6 -6,0 0,-6z M102,150l6,0 0,6 -6,0 0,-6z M108,150l6,0 0,6 -6,0 0,-6z M120,150l6,0 0,6 -6,0 0,-6z M156,150l6,0 0,6 -6,0 0,-6z M162,150l6,0 0,6 -6,0 0,-6z M174,150l6,0 0,6 -6,0 0,-6z M180,150l6,0 0,6 -6,0 0,-6z M192,150l6,0 0,6 -6,0 0,-6z M204,150l6,0 0,6 -6,0 0,-6z M210,150l6,0 0,6 -6,0 0,-6z M228,150l6,0 0,6 -6,0 0,-6z M234,150l6,0 0,6 -6,0 0,-6z M24,156l6,0 0,6 -6,0 0,-6z M30,156l6,0 0,6 -6,0 0,-6z M36,156l6,0 0,6 -6,0 0,-6z M72,156l6,0 0,6 -6,0 0,-6z M78,156l6,0 0,6 -6,0 0,-6z M102,156l6,0 0,6 -6,0 0,-6z M108,156l6,0 0,6 -6,0 0,-6z M114,156l6,0 0,6 -6,0 0,-6z M120,156l6,0 0,6 -6,0 0,-6z M126,156l6,0 0,6 -6,0 0,-6z M132,156l6,0 0,6 -6,0 0,-6z M138,156l6,0 0,6 -6,0 0,-6z M150,156l6,0 0,6 -6,0 0,-6z M156,156l6,0 0,6 -6,0 0,-6z M174,156l6,0 0,6 -6,0 0,-6z M192,156l6,0 0,6 -6,0 0,-6z M204,156l6,0 0,6 -6,0 0,-6z M216,156l6,0 0,6 -6,0 0,-6z M222,156l6,0 0,6 -6,0 0,-6z M228,156l6,0 0,6 -6,0 0,-6z M18,162l6,0 0,6 -6,0 0,-6z M24,162l6,0 0,6 -6,0 0,-6z M48,162l6,0 0,6 -6,0 0,-6z M54,162l6,0 0,6 -6,0 0,-6z M66,162l6,0 0,6 -6,0 0,-6z M72,162l6,0 0,6 -6,0 0,-6z M78,162l6,0 0,6 -6,0 0,-6z M96,162l6,0 0,6 -6,0 0,-6z M102,162l6,0 0,6 -6,0 0,-6z M108,162l6,0 0,6 -6,0 0,-6z M114,162l6,0 0,6 -6,0 0,-6z M132,162l6,0 0,6 -6,0 0,-6z M150,162l6,0 0,6 -6,0 0,-6z M156,162l6,0 0,6 -6,0 0,-6z M186,162l6,0 0,6 -6,0 0,-6z M192,162l6,0 0,6 -6,0 0,-6z M198,162l6,0 0,6 -6,0 0,-6z M216,162l6,0 0,6 -6,0 0,-6z M228,162l6,0 0,6 -6,0 0,-6z M234,162l6,0 0,6 -6,0 0,-6z M18,168l6,0 0,6 -6,0 0,-6z M24,168l6,0 0,6 -6,0 0,-6z M30,168l6,0 0,6 -6,0 0,-6z M36,168l6,0 0,6 -6,0 0,-6z M42,168l6,0 0,6 -6,0 0,-6z M72,168l6,0 0,6 -6,0 0,-6z M78,168l6,0 0,6 -6,0 0,-6z M90,168l6,0 0,6 -6,0 0,-6z M108,168l6,0 0,6 -6,0 0,-6z M120,168l6,0 0,6 -6,0 0,-6z M126,168l6,0 0,6 -6,0 0,-6z M132,168l6,0 0,6 -6,0 0,-6z M156,168l6,0 0,6 -6,0 0,-6z M174,168l6,0 0,6 -6,0 0,-6z M180,168l6,0 0,6 -6,0 0,-6z M204,168l6,0 0,6 -6,0 0,-6z M210,168l6,0 0,6 -6,0 0,-6z M216,168l6,0 0,6 -6,0 0,-6z M18,174l6,0 0,6 -6,0 0,-6z M24,174l6,0 0,6 -6,0 0,-6z M48,174l6,0 0,6 -6,0 0,-6z M54,174l6,0 0,6 -6,0 0,-6z M60,174l6,0 0,6 -6,0 0,-6z M66,174l6,0 0,6 -6,0 0,-6z M78,174l6,0 0,6 -6,0 0,-6z M102,174l6,0 0,6 -6,0 0,-6z M108,174l6,0 0,6 -6,0 0,-6z M114,174l6,0 0,6 -6,0 0,-6z M126,174l6,0 0,6 -6,0 0,-6z M132,174l6,0 0,6 -6,0 0,-6z M150,174l6,0 0,6 -6,0 0,-6z M162,174l6,0 0,6 -6,0 0,-6z M168,174l6,0 0,6 -6,0 0,-6z M180,174l6,0 0,6 -6,0 0,-6z M186,174l6,0 0,6 -6,0 0,-6z M198,174l6,0 0,6 -6,0 0,-6z M204,174l6,0 0,6 -6,0 0,-6z M210,174l6,0 0,6 -6,0 0,-6z M216,174l6,0 0,6 -6,0 0,-6z M222,174l6,0 0,6 -6,0 0,-6z M234,174l6,0 0,6 -6,0 0,-6z M18,180l6,0 0,6 -6,0 0,-6z M66,180l6,0 0,6 -6,0 0,-6z M90,180l6,0 0,6 -6,0 0,-6z M96,180l6,0 0,6 -6,0 0,-6z M102,180l6,0 0,6 -6,0 0,-6z M108,180l6,0 0,6 -6,0 0,-6z M114,180l6,0 0,6 -6,0 0,-6z M138,180l6,0 0,6 -6,0 0,-6z M150,180l6,0 0,6 -6,0 0,-6z M162,180l6,0 0,6 -6,0 0,-6z M174,180l6,0 0,6 -6,0 0,-6z M180,180l6,0 0,6 -6,0 0,-6z M186,180l6,0 0,6 -6,0 0,-6z M210,180l6,0 0,6 -6,0 0,-6z M222,180l6,0 0,6 -6,0 0,-6z M228,180l6,0 0,6 -6,0 0,-6z M18,186l6,0 0,6 -6,0 0,-6z M30,186l6,0 0,6 -6,0 0,-6z M42,186l6,0 0,6 -6,0 0,-6z M54,186l6,0 0,6 -6,0 0,-6z M60,186l6,0 0,6 -6,0 0,-6z M72,186l6,0 0,6 -6,0 0,-6z M78,186l6,0 0,6 -6,0 0,-6z M84,186l6,0 0,6 -6,0 0,-6z M90,186l6,0 0,6 -6,0 0,-6z M114,186l6,0 0,6 -6,0 0,-6z M138,186l6,0 0,6 -6,0 0,-6z M144,186l6,0 0,6 -6,0 0,-6z M150,186l6,0 0,6 -6,0 0,-6z M162,186l6,0 0,6 -6,0 0,-6z M168,186l6,0 0,6 -6,0 0,-6z M180,186l6,0 0,6 -6,0 0,-6z M186,186l6,0 0,6 -6,0 0,-6z M192,186l6,0 0,6 -6,0 0,-6z M198,186l6,0 0,6 -6,0 0,-6z M204,186l6,0 0,6 -6,0 0,-6z M210,186l6,0 0,6 -6,0 0,-6z M216,186l6,0 0,6 -6,0 0,-6z M222,186l6,0 0,6 -6,0 0,-6z M228,186l6,0 0,6 -6,0 0,-6z M66,192l6,0 0,6 -6,0 0,-6z M72,192l6,0 0,6 -6,0 0,-6z M78,192l6,0 0,6 -6,0 0,-6z M84,192l6,0 0,6 -6,0 0,-6z M108,192l6,0 0,6 -6,0 0,-6z M114,192l6,0 0,6 -6,0 0,-6z M120,192l6,0 0,6 -6,0 0,-6z M132,192l6,0 0,6 -6,0 0,-6z M150,192l6,0 0,6 -6,0 0,-6z M186,192l6,0 0,6 -6,0 0,-6z M210,192l6,0 0,6 -6,0 0,-6z M222,192l6,0 0,6 -6,0 0,-6z M18,198l6,0 0,6 -6,0 0,-6z M24,198l6,0 0,6 -6,0 0,-6z M30,198l6,0 0,6 -6,0 0,-6z M36,198l6,0 0,6 -6,0 0,-6z M42,198l6,0 0,6 -6,0 0,-6z M48,198l6,0 0,6 -6,0 0,-6z M54,198l6,0 0,6 -6,0 0,-6z M72,198l6,0 0,6 -6,0 0,-6z M78,198l6,0 0,6 -6,0 0,-6z M90,198l6,0 0,6 -6,0 0,-6z M96,198l6,0 0,6 -6,0 0,-6z M102,198l6,0 0,6 -6,0 0,-6z M108,198l6,0 0,6 -6,0 0,-6z M114,198l6,0 0,6 -6,0 0,-6z M120,198l6,0 0,6 -6,0 0,-6z M132,198l6,0 0,6 -6,0 0,-6z M138,198l6,0 0,6 -6,0 0,-6z M144,198l6,0 0,6 -6,0 0,-6z M150,198l6,0 0,6 -6,0 0,-6z M156,198l6,0 0,6 -6,0 0,-6z M168,198l6,0 0,6 -6,0 0,-6z M174,198l6,0 0,6 -6,0 0,-6z M186,198l6,0 0,6 -6,0 0,-6z M198,198l6,0 0,6 -6,0 0,-6z M210,198l6,0 0,6 -6,0 0,-6z M216,198l6,0 0,6 -6,0 0,-6z M234,198l6,0 0,6 -6,0 0,-6z M18,204l6,0 0,6 -6,0 0,-6z M54,204l6,0 0,6 -6,0 0,-6z M72,204l6,0 0,6 -6,0 0,-6z M78,204l6,0 0,6 -6,0 0,-6z M84,204l6,0 0,6 -6,0 0,-6z M96,204l6,0 0,6 -6,0 0,-6z M108,204l6,0 0,6 -6,0 0,-6z M126,204l6,0 0,6 -6,0 0,-6z M150,204l6,0 0,6 -6,0 0,-6z M156,204l6,0 0,6 -6,0 0,-6z M162,204l6,0 0,6 -6,0 0,-6z M168,204l6,0 0,6 -6,0 0,-6z M186,204l6,0 0,6 -6,0 0,-6z M210,204l6,0 0,6 -6,0 0,-6z M18,210l6,0 0,6 -6,0 0,-6z M30,210l6,0 0,6 -6,0 0,-6z M36,210l6,0 0,6 -6,0 0,-6z M42,210l6,0 0,6 -6,0 0,-6z M54,210l6,0 0,6 -6,0 0,-6z M66,210l6,0 0,6 -6,0 0,-6z M72,210l6,0 0,6 -6,0 0,-6z M78,210l6,0 0,6 -6,0 0,-6z M84,210l6,0 0,6 -6,0 0,-6z M96,210l6,0 0,6 -6,0 0,-6z M108,210l6,0 0,6 -6,0 0,-6z M114,210l6,0 0,6 -6,0 0,-6z M120,210l6,0 0,6 -6,0 0,-6z M174,210l6,0 0,6 -6,0 0,-6z M180,210l6,0 0,6 -6,0 0,-6z M186,210l6,0 0,6 -6,0 0,-6z M192,210l6,0 0,6 -6,0 0,-6z M198,210l6,0 0,6 -6,0 0,-6z M204,210l6,0 0,6 -6,0 0,-6z M210,210l6,0 0,6 -6,0 0,-6z M228,210l6,0 0,6 -6,0 0,-6z M234,210l6,0 0,6 -6,0 0,-6z M18,216l6,0 0,6 -6,0 0,-6z M30,216l6,0 0,6 -6,0 0,-6z M36,216l6,0 0,6 -6,0 0,-6z M42,216l6,0 0,6 -6,0 0,-6z M54,216l6,0 0,6 -6,0 0,-6z M66,216l6,0 0,6 -6,0 0,-6z M90,216l6,0 0,6 -6,0 0,-6z M96,216l6,0 0,6 -6,0 0,-6z M108,216l6,0 0,6 -6,0 0,-6z M114,216l6,0 0,6 -6,0 0,-6z M120,216l6,0 0,6 -6,0 0,-6z M126,216l6,0 0,6 -6,0 0,-6z M132,216l6,0 0,6 -6,0 0,-6z M156,216l6,0 0,6 -6,0 0,-6z M198,216l6,0 0,6 -6,0 0,-6z M204,216l6,0 0,6 -6,0 0,-6z M228,216l6,0 0,6 -6,0 0,-6z M234,216l6,0 0,6 -6,0 0,-6z M18,222l6,0 0,6 -6,0 0,-6z M30,222l6,0 0,6 -6,0 0,-6z M36,222l6,0 0,6 -6,0 0,-6z M42,222l6,0 0,6 -6,0 0,-6z M54,222l6,0 0,6 -6,0 0,-6z M72,222l6,0 0,6 -6,0 0,-6z M84,222l6,0 0,6 -6,0 0,-6z M96,222l6,0 0,6 -6,0 0,-6z M108,222l6,0 0,6 -6,0 0,-6z M114,222l6,0 0,6 -6,0 0,-6z M120,222l6,0 0,6 -6,0 0,-6z M156,222l6,0 0,6 -6,0 0,-6z M168,222l6,0 0,6 -6,0 0,-6z M174,222l6,0 0,6 -6,0 0,-6z M180,222l6,0 0,6 -6,0 0,-6z M210,222l6,0 0,6 -6,0 0,-6z M216,222l6,0 0,6 -6,0 0,-6z M222,222l6,0 0,6 -6,0 0,-6z M234,222l6,0 0,6 -6,0 0,-6z M18,228l6,0 0,6 -6,0 0,-6z M54,228l6,0 0,6 -6,0 0,-6z M66,228l6,0 0,6 -6,0 0,-6z M72,228l6,0 0,6 -6,0 0,-6z M84,228l6,0 0,6 -6,0 0,-6z M90,228l6,0 0,6 -6,0 0,-6z M96,228l6,0 0,6 -6,0 0,-6z M120,228l6,0 0,6 -6,0 0,-6z M126,228l6,0 0,6 -6,0 0,-6z M138,228l6,0 0,6 -6,0 0,-6z M150,228l6,0 0,6 -6,0 0,-6z M156,228l6,0 0,6 -6,0 0,-6z M162,228l6,0 0,6 -6,0 0,-6z M180,228l6,0 0,6 -6,0 0,-6z M192,228l6,0 0,6 -6,0 0,-6z M198,228l6,0 0,6 -6,0 0,-6z M210,228l6,0 0,6 -6,0 0,-6z M222,228l6,0 0,6 -6,0 0,-6z M228,228l6,0 0,6 -6,0 0,-6z M234,228l6,0 0,6 -6,0 0,-6z M18,234l6,0 0,6 -6,0 0,-6z M24,234l6,0 0,6 -6,0 0,-6z M30,234l6,0 0,6 -6,0 0,-6z M36,234l6,0 0,6 -6,0 0,-6z M42,234l6,0 0,6 -6,0 0,-6z M48,234l6,0 0,6 -6,0 0,-6z M54,234l6,0 0,6 -6,0 0,-6z M66,234l6,0 0,6 -6,0 0,-6z M72,234l6,0 0,6 -6,0 0,-6z M78,234l6,0 0,6 -6,0 0,-6z M84,234l6,0 0,6 -6,0 0,-6z M90,234l6,0 0,6 -6,0 0,-6z M96,234l6,0 0,6 -6,0 0,-6z M108,234l6,0 0,6 -6,0 0,-6z M114,234l6,0 0,6 -6,0 0,-6z M132,234l6,0 0,6 -6,0 0,-6z M156,234l6,0 0,6 -6,0 0,-6z M162,234l6,0 0,6 -6,0 0,-6z M180,234l6,0 0,6 -6,0 0,-6z M186,234l6,0 0,6 -6,0 0,-6z M192,234l6,0 0,6 -6,0 0,-6z M204,234l6,0 0,6 -6,0 0,-6z M210,234l6,0 0,6 -6,0 0,-6z M216,234l6,0 0,6 -6,0 0,-6z M234,234l6,0 0,6 -6,0 0,-6z " stroke="transparent" fill="black"/><text
     xml:space="preserve"
     style="font-style:normal;font-weight:normal;font-size:14.79809952px;line-height:1.25;font-family:sans-serif;letter-spacing:0px;word-spacing:0px;fill:#000000;fill-opacity:1;stroke:none;stroke-width:0.36995247"
     x="51.262955"
     y="239.21269"
     id="qr-label"
     transform="scale(0.92825188,1.0772938)"><title
       id="title22">qr-label</title><tspan
       sodipodi:role="line"
       id="tspan14"
       x="51.262955"
       y="239.21269"
       style="letter-spacing:-0.26368171px;stroke-width:0.36995247">257-22Arun Waghmare</tspan></text></svg>