<svg version="1.1" xmlns="http://www.w3.org/2000/svg" width="258px" height="258px" viewBox="0 0 258 258"  preserveAspectRatio="xMinYMin meet"><rect width="100%" height="100%" fill="white" cx="0" cy="0"/><path d="M18,18l6,0 0,6 -6,0 0,-6z M24,18l6,0 0,6 -6,0 0,-6z M30,18l6,0 0,6 -6,0 0,-6z M36,18l6,0 0,6 -6,0 0,-6z M42,18l6,0 0,6 -6,0 0,-6z M48,18l6,0 0,6 -6,0 0,-6z M54,18l6,0 0,6 -6,0 0,-6z M72,18l6,0 0,6 -6,0 0,-6z M78,18l6,0 0,6 -6,0 0,-6z M84,18l6,0 0,6 -6,0 0,-6z M96,18l6,0 0,6 -6,0 0,-6z M102,18l6,0 0,6 -6,0 0,-6z M108,18l6,0 0,6 -6,0 0,-6z M120,18l6,0 0,6 -6,0 0,-6z M126,18l6,0 0,6 -6,0 0,-6z M144,18l6,0 0,6 -6,0 0,-6z M150,18l6,0 0,6 -6,0 0,-6z M162,18l6,0 0,6 -6,0 0,-6z M168,18l6,0 0,6 -6,0 0,-6z M174,18l6,0 0,6 -6,0 0,-6z M198,18l6,0 0,6 -6,0 0,-6z M204,18l6,0 0,6 -6,0 0,-6z M210,18l6,0 0,6 -6,0 0,-6z M216,18l6,0 0,6 -6,0 0,-6z M222,18l6,0 0,6 -6,0 0,-6z M228,18l6,0 0,6 -6,0 0,-6z M234,18l6,0 0,6 -6,0 0,-6z M18,24l6,0 0,6 -6,0 0,-6z M54,24l6,0 0,6 -6,0 0,-6z M84,24l6,0 0,6 -6,0 0,-6z M90,24l6,0 0,6 -6,0 0,-6z M108,24l6,0 0,6 -6,0 0,-6z M144,24l6,0 0,6 -6,0 0,-6z M174,24l6,0 0,6 -6,0 0,-6z M198,24l6,0 0,6 -6,0 0,-6z M234,24l6,0 0,6 -6,0 0,-6z M18,30l6,0 0,6 -6,0 0,-6z M30,30l6,0 0,6 -6,0 0,-6z M36,30l6,0 0,6 -6,0 0,-6z M42,30l6,0 0,6 -6,0 0,-6z M54,30l6,0 0,6 -6,0 0,-6z M72,30l6,0 0,6 -6,0 0,-6z M78,30l6,0 0,6 -6,0 0,-6z M84,30l6,0 0,6 -6,0 0,-6z M102,30l6,0 0,6 -6,0 0,-6z M114,30l6,0 0,6 -6,0 0,-6z M138,30l6,0 0,6 -6,0 0,-6z M144,30l6,0 0,6 -6,0 0,-6z M174,30l6,0 0,6 -6,0 0,-6z M180,30l6,0 0,6 -6,0 0,-6z M186,30l6,0 0,6 -6,0 0,-6z M198,30l6,0 0,6 -6,0 0,-6z M210,30l6,0 0,6 -6,0 0,-6z M216,30l6,0 0,6 -6,0 0,-6z M222,30l6,0 0,6 -6,0 0,-6z M234,30l6,0 0,6 -6,0 0,-6z M18,36l6,0 0,6 -6,0 0,-6z M30,36l6,0 0,6 -6,0 0,-6z M36,36l6,0 0,6 -6,0 0,-6z M42,36l6,0 0,6 -6,0 0,-6z M54,36l6,0 0,6 -6,0 0,-6z M66,36l6,0 0,6 -6,0 0,-6z M78,36l6,0 0,6 -6,0 0,-6z M84,36l6,0 0,6 -6,0 0,-6z M102,36l6,0 0,6 -6,0 0,-6z M108,36l6,0 0,6 -6,0 0,-6z M120,36l6,0 0,6 -6,0 0,-6z M126,36l6,0 0,6 -6,0 0,-6z M132,36l6,0 0,6 -6,0 0,-6z M138,36l6,0 0,6 -6,0 0,-6z M144,36l6,0 0,6 -6,0 0,-6z M150,36l6,0 0,6 -6,0 0,-6z M162,36l6,0 0,6 -6,0 0,-6z M168,36l6,0 0,6 -6,0 0,-6z M174,36l6,0 0,6 -6,0 0,-6z M198,36l6,0 0,6 -6,0 0,-6z M210,36l6,0 0,6 -6,0 0,-6z M216,36l6,0 0,6 -6,0 0,-6z M222,36l6,0 0,6 -6,0 0,-6z M234,36l6,0 0,6 -6,0 0,-6z M18,42l6,0 0,6 -6,0 0,-6z M30,42l6,0 0,6 -6,0 0,-6z M36,42l6,0 0,6 -6,0 0,-6z M42,42l6,0 0,6 -6,0 0,-6z M54,42l6,0 0,6 -6,0 0,-6z M66,42l6,0 0,6 -6,0 0,-6z M78,42l6,0 0,6 -6,0 0,-6z M90,42l6,0 0,6 -6,0 0,-6z M96,42l6,0 0,6 -6,0 0,-6z M102,42l6,0 0,6 -6,0 0,-6z M108,42l6,0 0,6 -6,0 0,-6z M126,42l6,0 0,6 -6,0 0,-6z M132,42l6,0 0,6 -6,0 0,-6z M138,42l6,0 0,6 -6,0 0,-6z M150,42l6,0 0,6 -6,0 0,-6z M156,42l6,0 0,6 -6,0 0,-6z M186,42l6,0 0,6 -6,0 0,-6z M198,42l6,0 0,6 -6,0 0,-6z M210,42l6,0 0,6 -6,0 0,-6z M216,42l6,0 0,6 -6,0 0,-6z M222,42l6,0 0,6 -6,0 0,-6z M234,42l6,0 0,6 -6,0 0,-6z M18,48l6,0 0,6 -6,0 0,-6z M54,48l6,0 0,6 -6,0 0,-6z M72,48l6,0 0,6 -6,0 0,-6z M78,48l6,0 0,6 -6,0 0,-6z M96,48l6,0 0,6 -6,0 0,-6z M102,48l6,0 0,6 -6,0 0,-6z M114,48l6,0 0,6 -6,0 0,-6z M120,48l6,0 0,6 -6,0 0,-6z M126,48l6,0 0,6 -6,0 0,-6z M144,48l6,0 0,6 -6,0 0,-6z M168,48l6,0 0,6 -6,0 0,-6z M186,48l6,0 0,6 -6,0 0,-6z M198,48l6,0 0,6 -6,0 0,-6z M234,48l6,0 0,6 -6,0 0,-6z M18,54l6,0 0,6 -6,0 0,-6z M24,54l6,0 0,6 -6,0 0,-6z M30,54l6,0 0,6 -6,0 0,-6z M36,54l6,0 0,6 -6,0 0,-6z M42,54l6,0 0,6 -6,0 0,-6z M48,54l6,0 0,6 -6,0 0,-6z M54,54l6,0 0,6 -6,0 0,-6z M66,54l6,0 0,6 -6,0 0,-6z M78,54l6,0 0,6 -6,0 0,-6z M90,54l6,0 0,6 -6,0 0,-6z M102,54l6,0 0,6 -6,0 0,-6z M114,54l6,0 0,6 -6,0 0,-6z M126,54l6,0 0,6 -6,0 0,-6z M138,54l6,0 0,6 -6,0 0,-6z M150,54l6,0 0,6 -6,0 0,-6z M162,54l6,0 0,6 -6,0 0,-6z M174,54l6,0 0,6 -6,0 0,-6z M186,54l6,0 0,6 -6,0 0,-6z M198,54l6,0 0,6 -6,0 0,-6z M204,54l6,0 0,6 -6,0 0,-6z M210,54l6,0 0,6 -6,0 0,-6z M216,54l6,0 0,6 -6,0 0,-6z M222,54l6,0 0,6 -6,0 0,-6z M228,54l6,0 0,6 -6,0 0,-6z M234,54l6,0 0,6 -6,0 0,-6z M72,60l6,0 0,6 -6,0 0,-6z M90,60l6,0 0,6 -6,0 0,-6z M96,60l6,0 0,6 -6,0 0,-6z M126,60l6,0 0,6 -6,0 0,-6z M138,60l6,0 0,6 -6,0 0,-6z M18,66l6,0 0,6 -6,0 0,-6z M24,66l6,0 0,6 -6,0 0,-6z M48,66l6,0 0,6 -6,0 0,-6z M54,66l6,0 0,6 -6,0 0,-6z M60,66l6,0 0,6 -6,0 0,-6z M72,66l6,0 0,6 -6,0 0,-6z M78,66l6,0 0,6 -6,0 0,-6z M90,66l6,0 0,6 -6,0 0,-6z M102,66l6,0 0,6 -6,0 0,-6z M108,66l6,0 0,6 -6,0 0,-6z M120,66l6,0 0,6 -6,0 0,-6z M126,66l6,0 0,6 -6,0 0,-6z M138,66l6,0 0,6 -6,0 0,-6z M156,66l6,0 0,6 -6,0 0,-6z M162,66l6,0 0,6 -6,0 0,-6z M168,66l6,0 0,6 -6,0 0,-6z M180,66l6,0 0,6 -6,0 0,-6z M210,66l6,0 0,6 -6,0 0,-6z M216,66l6,0 0,6 -6,0 0,-6z M18,72l6,0 0,6 -6,0 0,-6z M24,72l6,0 0,6 -6,0 0,-6z M42,72l6,0 0,6 -6,0 0,-6z M60,72l6,0 0,6 -6,0 0,-6z M66,72l6,0 0,6 -6,0 0,-6z M72,72l6,0 0,6 -6,0 0,-6z M78,72l6,0 0,6 -6,0 0,-6z M102,72l6,0 0,6 -6,0 0,-6z M120,72l6,0 0,6 -6,0 0,-6z M132,72l6,0 0,6 -6,0 0,-6z M150,72l6,0 0,6 -6,0 0,-6z M156,72l6,0 0,6 -6,0 0,-6z M168,72l6,0 0,6 -6,0 0,-6z M180,72l6,0 0,6 -6,0 0,-6z M210,72l6,0 0,6 -6,0 0,-6z M222,72l6,0 0,6 -6,0 0,-6z M18,78l6,0 0,6 -6,0 0,-6z M30,78l6,0 0,6 -6,0 0,-6z M48,78l6,0 0,6 -6,0 0,-6z M54,78l6,0 0,6 -6,0 0,-6z M72,78l6,0 0,6 -6,0 0,-6z M78,78l6,0 0,6 -6,0 0,-6z M84,78l6,0 0,6 -6,0 0,-6z M90,78l6,0 0,6 -6,0 0,-6z M120,78l6,0 0,6 -6,0 0,-6z M126,78l6,0 0,6 -6,0 0,-6z M138,78l6,0 0,6 -6,0 0,-6z M168,78l6,0 0,6 -6,0 0,-6z M180,78l6,0 0,6 -6,0 0,-6z M198,78l6,0 0,6 -6,0 0,-6z M216,78l6,0 0,6 -6,0 0,-6z M222,78l6,0 0,6 -6,0 0,-6z M234,78l6,0 0,6 -6,0 0,-6z M24,84l6,0 0,6 -6,0 0,-6z M42,84l6,0 0,6 -6,0 0,-6z M60,84l6,0 0,6 -6,0 0,-6z M66,84l6,0 0,6 -6,0 0,-6z M72,84l6,0 0,6 -6,0 0,-6z M78,84l6,0 0,6 -6,0 0,-6z M84,84l6,0 0,6 -6,0 0,-6z M102,84l6,0 0,6 -6,0 0,-6z M108,84l6,0 0,6 -6,0 0,-6z M114,84l6,0 0,6 -6,0 0,-6z M126,84l6,0 0,6 -6,0 0,-6z M162,84l6,0 0,6 -6,0 0,-6z M186,84l6,0 0,6 -6,0 0,-6z M204,84l6,0 0,6 -6,0 0,-6z M210,84l6,0 0,6 -6,0 0,-6z M36,90l6,0 0,6 -6,0 0,-6z M48,90l6,0 0,6 -6,0 0,-6z M54,90l6,0 0,6 -6,0 0,-6z M60,90l6,0 0,6 -6,0 0,-6z M96,90l6,0 0,6 -6,0 0,-6z M102,90l6,0 0,6 -6,0 0,-6z M126,90l6,0 0,6 -6,0 0,-6z M138,90l6,0 0,6 -6,0 0,-6z M144,90l6,0 0,6 -6,0 0,-6z M156,90l6,0 0,6 -6,0 0,-6z M162,90l6,0 0,6 -6,0 0,-6z M174,90l6,0 0,6 -6,0 0,-6z M180,90l6,0 0,6 -6,0 0,-6z M198,90l6,0 0,6 -6,0 0,-6z M204,90l6,0 0,6 -6,0 0,-6z M216,90l6,0 0,6 -6,0 0,-6z M228,90l6,0 0,6 -6,0 0,-6z M234,90l6,0 0,6 -6,0 0,-6z M30,96l6,0 0,6 -6,0 0,-6z M42,96l6,0 0,6 -6,0 0,-6z M48,96l6,0 0,6 -6,0 0,-6z M72,96l6,0 0,6 -6,0 0,-6z M90,96l6,0 0,6 -6,0 0,-6z M96,96l6,0 0,6 -6,0 0,-6z M102,96l6,0 0,6 -6,0 0,-6z M126,96l6,0 0,6 -6,0 0,-6z M132,96l6,0 0,6 -6,0 0,-6z M138,96l6,0 0,6 -6,0 0,-6z M150,96l6,0 0,6 -6,0 0,-6z M156,96l6,0 0,6 -6,0 0,-6z M180,96l6,0 0,6 -6,0 0,-6z M186,96l6,0 0,6 -6,0 0,-6z M216,96l6,0 0,6 -6,0 0,-6z M222,96l6,0 0,6 -6,0 0,-6z M18,102l6,0 0,6 -6,0 0,-6z M24,102l6,0 0,6 -6,0 0,-6z M30,102l6,0 0,6 -6,0 0,-6z M48,102l6,0 0,6 -6,0 0,-6z M54,102l6,0 0,6 -6,0 0,-6z M60,102l6,0 0,6 -6,0 0,-6z M96,102l6,0 0,6 -6,0 0,-6z M102,102l6,0 0,6 -6,0 0,-6z M108,102l6,0 0,6 -6,0 0,-6z M114,102l6,0 0,6 -6,0 0,-6z M120,102l6,0 0,6 -6,0 0,-6z M126,102l6,0 0,6 -6,0 0,-6z M144,102l6,0 0,6 -6,0 0,-6z M162,102l6,0 0,6 -6,0 0,-6z M168,102l6,0 0,6 -6,0 0,-6z M180,102l6,0 0,6 -6,0 0,-6z M186,102l6,0 0,6 -6,0 0,-6z M192,102l6,0 0,6 -6,0 0,-6z M210,102l6,0 0,6 -6,0 0,-6z M216,102l6,0 0,6 -6,0 0,-6z M234,102l6,0 0,6 -6,0 0,-6z M48,108l6,0 0,6 -6,0 0,-6z M60,108l6,0 0,6 -6,0 0,-6z M66,108l6,0 0,6 -6,0 0,-6z M90,108l6,0 0,6 -6,0 0,-6z M96,108l6,0 0,6 -6,0 0,-6z M102,108l6,0 0,6 -6,0 0,-6z M114,108l6,0 0,6 -6,0 0,-6z M126,108l6,0 0,6 -6,0 0,-6z M150,108l6,0 0,6 -6,0 0,-6z M156,108l6,0 0,6 -6,0 0,-6z M174,108l6,0 0,6 -6,0 0,-6z M180,108l6,0 0,6 -6,0 0,-6z M186,108l6,0 0,6 -6,0 0,-6z M210,108l6,0 0,6 -6,0 0,-6z M222,108l6,0 0,6 -6,0 0,-6z M24,114l6,0 0,6 -6,0 0,-6z M48,114l6,0 0,6 -6,0 0,-6z M54,114l6,0 0,6 -6,0 0,-6z M60,114l6,0 0,6 -6,0 0,-6z M72,114l6,0 0,6 -6,0 0,-6z M90,114l6,0 0,6 -6,0 0,-6z M102,114l6,0 0,6 -6,0 0,-6z M108,114l6,0 0,6 -6,0 0,-6z M138,114l6,0 0,6 -6,0 0,-6z M156,114l6,0 0,6 -6,0 0,-6z M162,114l6,0 0,6 -6,0 0,-6z M174,114l6,0 0,6 -6,0 0,-6z M180,114l6,0 0,6 -6,0 0,-6z M186,114l6,0 0,6 -6,0 0,-6z M198,114l6,0 0,6 -6,0 0,-6z M210,114l6,0 0,6 -6,0 0,-6z M216,114l6,0 0,6 -6,0 0,-6z M222,114l6,0 0,6 -6,0 0,-6z M36,120l6,0 0,6 -6,0 0,-6z M48,120l6,0 0,6 -6,0 0,-6z M66,120l6,0 0,6 -6,0 0,-6z M114,120l6,0 0,6 -6,0 0,-6z M132,120l6,0 0,6 -6,0 0,-6z M138,120l6,0 0,6 -6,0 0,-6z M144,120l6,0 0,6 -6,0 0,-6z M156,120l6,0 0,6 -6,0 0,-6z M168,120l6,0 0,6 -6,0 0,-6z M180,120l6,0 0,6 -6,0 0,-6z M186,120l6,0 0,6 -6,0 0,-6z M228,120l6,0 0,6 -6,0 0,-6z M18,126l6,0 0,6 -6,0 0,-6z M30,126l6,0 0,6 -6,0 0,-6z M36,126l6,0 0,6 -6,0 0,-6z M48,126l6,0 0,6 -6,0 0,-6z M54,126l6,0 0,6 -6,0 0,-6z M60,126l6,0 0,6 -6,0 0,-6z M90,126l6,0 0,6 -6,0 0,-6z M96,126l6,0 0,6 -6,0 0,-6z M102,126l6,0 0,6 -6,0 0,-6z M114,126l6,0 0,6 -6,0 0,-6z M120,126l6,0 0,6 -6,0 0,-6z M126,126l6,0 0,6 -6,0 0,-6z M132,126l6,0 0,6 -6,0 0,-6z M138,126l6,0 0,6 -6,0 0,-6z M156,126l6,0 0,6 -6,0 0,-6z M162,126l6,0 0,6 -6,0 0,-6z M174,126l6,0 0,6 -6,0 0,-6z M180,126l6,0 0,6 -6,0 0,-6z M186,126l6,0 0,6 -6,0 0,-6z M192,126l6,0 0,6 -6,0 0,-6z M198,126l6,0 0,6 -6,0 0,-6z M216,126l6,0 0,6 -6,0 0,-6z M228,126l6,0 0,6 -6,0 0,-6z M234,126l6,0 0,6 -6,0 0,-6z M24,132l6,0 0,6 -6,0 0,-6z M36,132l6,0 0,6 -6,0 0,-6z M42,132l6,0 0,6 -6,0 0,-6z M66,132l6,0 0,6 -6,0 0,-6z M78,132l6,0 0,6 -6,0 0,-6z M84,132l6,0 0,6 -6,0 0,-6z M102,132l6,0 0,6 -6,0 0,-6z M108,132l6,0 0,6 -6,0 0,-6z M114,132l6,0 0,6 -6,0 0,-6z M126,132l6,0 0,6 -6,0 0,-6z M132,132l6,0 0,6 -6,0 0,-6z M156,132l6,0 0,6 -6,0 0,-6z M162,132l6,0 0,6 -6,0 0,-6z M174,132l6,0 0,6 -6,0 0,-6z M180,132l6,0 0,6 -6,0 0,-6z M204,132l6,0 0,6 -6,0 0,-6z M216,132l6,0 0,6 -6,0 0,-6z M54,138l6,0 0,6 -6,0 0,-6z M60,138l6,0 0,6 -6,0 0,-6z M66,138l6,0 0,6 -6,0 0,-6z M78,138l6,0 0,6 -6,0 0,-6z M84,138l6,0 0,6 -6,0 0,-6z M114,138l6,0 0,6 -6,0 0,-6z M120,138l6,0 0,6 -6,0 0,-6z M162,138l6,0 0,6 -6,0 0,-6z M174,138l6,0 0,6 -6,0 0,-6z M180,138l6,0 0,6 -6,0 0,-6z M198,138l6,0 0,6 -6,0 0,-6z M204,138l6,0 0,6 -6,0 0,-6z M210,138l6,0 0,6 -6,0 0,-6z M216,138l6,0 0,6 -6,0 0,-6z M222,138l6,0 0,6 -6,0 0,-6z M234,138l6,0 0,6 -6,0 0,-6z M18,144l6,0 0,6 -6,0 0,-6z M36,144l6,0 0,6 -6,0 0,-6z M60,144l6,0 0,6 -6,0 0,-6z M66,144l6,0 0,6 -6,0 0,-6z M90,144l6,0 0,6 -6,0 0,-6z M96,144l6,0 0,6 -6,0 0,-6z M114,144l6,0 0,6 -6,0 0,-6z M132,144l6,0 0,6 -6,0 0,-6z M138,144l6,0 0,6 -6,0 0,-6z M150,144l6,0 0,6 -6,0 0,-6z M156,144l6,0 0,6 -6,0 0,-6z M162,144l6,0 0,6 -6,0 0,-6z M168,144l6,0 0,6 -6,0 0,-6z M174,144l6,0 0,6 -6,0 0,-6z M180,144l6,0 0,6 -6,0 0,-6z M186,144l6,0 0,6 -6,0 0,-6z M192,144l6,0 0,6 -6,0 0,-6z M210,144l6,0 0,6 -6,0 0,-6z M18,150l6,0 0,6 -6,0 0,-6z M24,150l6,0 0,6 -6,0 0,-6z M48,150l6,0 0,6 -6,0 0,-6z M54,150l6,0 0,6 -6,0 0,-6z M60,150l6,0 0,6 -6,0 0,-6z M72,150l6,0 0,6 -6,0 0,-6z M96,150l6,0 0,6 -6,0 0,-6z M102,150l6,0 0,6 -6,0 0,-6z M108,150l6,0 0,6 -6,0 0,-6z M114,150l6,0 0,6 -6,0 0,-6z M120,150l6,0 0,6 -6,0 0,-6z M126,150l6,0 0,6 -6,0 0,-6z M144,150l6,0 0,6 -6,0 0,-6z M162,150l6,0 0,6 -6,0 0,-6z M180,150l6,0 0,6 -6,0 0,-6z M210,150l6,0 0,6 -6,0 0,-6z M234,150l6,0 0,6 -6,0 0,-6z M18,156l6,0 0,6 -6,0 0,-6z M24,156l6,0 0,6 -6,0 0,-6z M36,156l6,0 0,6 -6,0 0,-6z M42,156l6,0 0,6 -6,0 0,-6z M78,156l6,0 0,6 -6,0 0,-6z M90,156l6,0 0,6 -6,0 0,-6z M96,156l6,0 0,6 -6,0 0,-6z M126,156l6,0 0,6 -6,0 0,-6z M138,156l6,0 0,6 -6,0 0,-6z M186,156l6,0 0,6 -6,0 0,-6z M216,156l6,0 0,6 -6,0 0,-6z M18,162l6,0 0,6 -6,0 0,-6z M48,162l6,0 0,6 -6,0 0,-6z M54,162l6,0 0,6 -6,0 0,-6z M60,162l6,0 0,6 -6,0 0,-6z M66,162l6,0 0,6 -6,0 0,-6z M72,162l6,0 0,6 -6,0 0,-6z M78,162l6,0 0,6 -6,0 0,-6z M84,162l6,0 0,6 -6,0 0,-6z M90,162l6,0 0,6 -6,0 0,-6z M96,162l6,0 0,6 -6,0 0,-6z M108,162l6,0 0,6 -6,0 0,-6z M114,162l6,0 0,6 -6,0 0,-6z M126,162l6,0 0,6 -6,0 0,-6z M138,162l6,0 0,6 -6,0 0,-6z M144,162l6,0 0,6 -6,0 0,-6z M162,162l6,0 0,6 -6,0 0,-6z M168,162l6,0 0,6 -6,0 0,-6z M186,162l6,0 0,6 -6,0 0,-6z M192,162l6,0 0,6 -6,0 0,-6z M198,162l6,0 0,6 -6,0 0,-6z M216,162l6,0 0,6 -6,0 0,-6z M228,162l6,0 0,6 -6,0 0,-6z M234,162l6,0 0,6 -6,0 0,-6z M18,168l6,0 0,6 -6,0 0,-6z M36,168l6,0 0,6 -6,0 0,-6z M60,168l6,0 0,6 -6,0 0,-6z M72,168l6,0 0,6 -6,0 0,-6z M114,168l6,0 0,6 -6,0 0,-6z M120,168l6,0 0,6 -6,0 0,-6z M126,168l6,0 0,6 -6,0 0,-6z M132,168l6,0 0,6 -6,0 0,-6z M150,168l6,0 0,6 -6,0 0,-6z M156,168l6,0 0,6 -6,0 0,-6z M162,168l6,0 0,6 -6,0 0,-6z M180,168l6,0 0,6 -6,0 0,-6z M216,168l6,0 0,6 -6,0 0,-6z M18,174l6,0 0,6 -6,0 0,-6z M36,174l6,0 0,6 -6,0 0,-6z M48,174l6,0 0,6 -6,0 0,-6z M54,174l6,0 0,6 -6,0 0,-6z M66,174l6,0 0,6 -6,0 0,-6z M84,174l6,0 0,6 -6,0 0,-6z M90,174l6,0 0,6 -6,0 0,-6z M120,174l6,0 0,6 -6,0 0,-6z M162,174l6,0 0,6 -6,0 0,-6z M180,174l6,0 0,6 -6,0 0,-6z M198,174l6,0 0,6 -6,0 0,-6z M204,174l6,0 0,6 -6,0 0,-6z M210,174l6,0 0,6 -6,0 0,-6z M216,174l6,0 0,6 -6,0 0,-6z M234,174l6,0 0,6 -6,0 0,-6z M18,180l6,0 0,6 -6,0 0,-6z M30,180l6,0 0,6 -6,0 0,-6z M36,180l6,0 0,6 -6,0 0,-6z M42,180l6,0 0,6 -6,0 0,-6z M66,180l6,0 0,6 -6,0 0,-6z M72,180l6,0 0,6 -6,0 0,-6z M84,180l6,0 0,6 -6,0 0,-6z M108,180l6,0 0,6 -6,0 0,-6z M126,180l6,0 0,6 -6,0 0,-6z M132,180l6,0 0,6 -6,0 0,-6z M138,180l6,0 0,6 -6,0 0,-6z M156,180l6,0 0,6 -6,0 0,-6z M162,180l6,0 0,6 -6,0 0,-6z M180,180l6,0 0,6 -6,0 0,-6z M186,180l6,0 0,6 -6,0 0,-6z M210,180l6,0 0,6 -6,0 0,-6z M222,180l6,0 0,6 -6,0 0,-6z M228,180l6,0 0,6 -6,0 0,-6z M18,186l6,0 0,6 -6,0 0,-6z M30,186l6,0 0,6 -6,0 0,-6z M42,186l6,0 0,6 -6,0 0,-6z M48,186l6,0 0,6 -6,0 0,-6z M54,186l6,0 0,6 -6,0 0,-6z M60,186l6,0 0,6 -6,0 0,-6z M66,186l6,0 0,6 -6,0 0,-6z M78,186l6,0 0,6 -6,0 0,-6z M84,186l6,0 0,6 -6,0 0,-6z M114,186l6,0 0,6 -6,0 0,-6z M120,186l6,0 0,6 -6,0 0,-6z M126,186l6,0 0,6 -6,0 0,-6z M144,186l6,0 0,6 -6,0 0,-6z M150,186l6,0 0,6 -6,0 0,-6z M162,186l6,0 0,6 -6,0 0,-6z M174,186l6,0 0,6 -6,0 0,-6z M180,186l6,0 0,6 -6,0 0,-6z M186,186l6,0 0,6 -6,0 0,-6z M192,186l6,0 0,6 -6,0 0,-6z M198,186l6,0 0,6 -6,0 0,-6z M204,186l6,0 0,6 -6,0 0,-6z M210,186l6,0 0,6 -6,0 0,-6z M216,186l6,0 0,6 -6,0 0,-6z M222,186l6,0 0,6 -6,0 0,-6z M66,192l6,0 0,6 -6,0 0,-6z M72,192l6,0 0,6 -6,0 0,-6z M90,192l6,0 0,6 -6,0 0,-6z M96,192l6,0 0,6 -6,0 0,-6z M102,192l6,0 0,6 -6,0 0,-6z M126,192l6,0 0,6 -6,0 0,-6z M132,192l6,0 0,6 -6,0 0,-6z M144,192l6,0 0,6 -6,0 0,-6z M156,192l6,0 0,6 -6,0 0,-6z M162,192l6,0 0,6 -6,0 0,-6z M168,192l6,0 0,6 -6,0 0,-6z M186,192l6,0 0,6 -6,0 0,-6z M210,192l6,0 0,6 -6,0 0,-6z M228,192l6,0 0,6 -6,0 0,-6z M18,198l6,0 0,6 -6,0 0,-6z M24,198l6,0 0,6 -6,0 0,-6z M30,198l6,0 0,6 -6,0 0,-6z M36,198l6,0 0,6 -6,0 0,-6z M42,198l6,0 0,6 -6,0 0,-6z M48,198l6,0 0,6 -6,0 0,-6z M54,198l6,0 0,6 -6,0 0,-6z M66,198l6,0 0,6 -6,0 0,-6z M72,198l6,0 0,6 -6,0 0,-6z M78,198l6,0 0,6 -6,0 0,-6z M84,198l6,0 0,6 -6,0 0,-6z M108,198l6,0 0,6 -6,0 0,-6z M126,198l6,0 0,6 -6,0 0,-6z M132,198l6,0 0,6 -6,0 0,-6z M144,198l6,0 0,6 -6,0 0,-6z M150,198l6,0 0,6 -6,0 0,-6z M156,198l6,0 0,6 -6,0 0,-6z M168,198l6,0 0,6 -6,0 0,-6z M186,198l6,0 0,6 -6,0 0,-6z M198,198l6,0 0,6 -6,0 0,-6z M210,198l6,0 0,6 -6,0 0,-6z M216,198l6,0 0,6 -6,0 0,-6z M234,198l6,0 0,6 -6,0 0,-6z M18,204l6,0 0,6 -6,0 0,-6z M54,204l6,0 0,6 -6,0 0,-6z M66,204l6,0 0,6 -6,0 0,-6z M78,204l6,0 0,6 -6,0 0,-6z M90,204l6,0 0,6 -6,0 0,-6z M96,204l6,0 0,6 -6,0 0,-6z M126,204l6,0 0,6 -6,0 0,-6z M174,204l6,0 0,6 -6,0 0,-6z M186,204l6,0 0,6 -6,0 0,-6z M210,204l6,0 0,6 -6,0 0,-6z M228,204l6,0 0,6 -6,0 0,-6z M234,204l6,0 0,6 -6,0 0,-6z M18,210l6,0 0,6 -6,0 0,-6z M30,210l6,0 0,6 -6,0 0,-6z M36,210l6,0 0,6 -6,0 0,-6z M42,210l6,0 0,6 -6,0 0,-6z M54,210l6,0 0,6 -6,0 0,-6z M78,210l6,0 0,6 -6,0 0,-6z M90,210l6,0 0,6 -6,0 0,-6z M102,210l6,0 0,6 -6,0 0,-6z M108,210l6,0 0,6 -6,0 0,-6z M120,210l6,0 0,6 -6,0 0,-6z M144,210l6,0 0,6 -6,0 0,-6z M150,210l6,0 0,6 -6,0 0,-6z M156,210l6,0 0,6 -6,0 0,-6z M162,210l6,0 0,6 -6,0 0,-6z M174,210l6,0 0,6 -6,0 0,-6z M180,210l6,0 0,6 -6,0 0,-6z M186,210l6,0 0,6 -6,0 0,-6z M192,210l6,0 0,6 -6,0 0,-6z M198,210l6,0 0,6 -6,0 0,-6z M204,210l6,0 0,6 -6,0 0,-6z M210,210l6,0 0,6 -6,0 0,-6z M222,210l6,0 0,6 -6,0 0,-6z M228,210l6,0 0,6 -6,0 0,-6z M18,216l6,0 0,6 -6,0 0,-6z M30,216l6,0 0,6 -6,0 0,-6z M36,216l6,0 0,6 -6,0 0,-6z M42,216l6,0 0,6 -6,0 0,-6z M54,216l6,0 0,6 -6,0 0,-6z M78,216l6,0 0,6 -6,0 0,-6z M102,216l6,0 0,6 -6,0 0,-6z M120,216l6,0 0,6 -6,0 0,-6z M150,216l6,0 0,6 -6,0 0,-6z M168,216l6,0 0,6 -6,0 0,-6z M174,216l6,0 0,6 -6,0 0,-6z M198,216l6,0 0,6 -6,0 0,-6z M204,216l6,0 0,6 -6,0 0,-6z M234,216l6,0 0,6 -6,0 0,-6z M18,222l6,0 0,6 -6,0 0,-6z M30,222l6,0 0,6 -6,0 0,-6z M36,222l6,0 0,6 -6,0 0,-6z M42,222l6,0 0,6 -6,0 0,-6z M54,222l6,0 0,6 -6,0 0,-6z M72,222l6,0 0,6 -6,0 0,-6z M78,222l6,0 0,6 -6,0 0,-6z M84,222l6,0 0,6 -6,0 0,-6z M90,222l6,0 0,6 -6,0 0,-6z M144,222l6,0 0,6 -6,0 0,-6z M174,222l6,0 0,6 -6,0 0,-6z M180,222l6,0 0,6 -6,0 0,-6z M192,222l6,0 0,6 -6,0 0,-6z M216,222l6,0 0,6 -6,0 0,-6z M222,222l6,0 0,6 -6,0 0,-6z M228,222l6,0 0,6 -6,0 0,-6z M234,222l6,0 0,6 -6,0 0,-6z M18,228l6,0 0,6 -6,0 0,-6z M54,228l6,0 0,6 -6,0 0,-6z M66,228l6,0 0,6 -6,0 0,-6z M78,228l6,0 0,6 -6,0 0,-6z M84,228l6,0 0,6 -6,0 0,-6z M102,228l6,0 0,6 -6,0 0,-6z M108,228l6,0 0,6 -6,0 0,-6z M114,228l6,0 0,6 -6,0 0,-6z M132,228l6,0 0,6 -6,0 0,-6z M150,228l6,0 0,6 -6,0 0,-6z M162,228l6,0 0,6 -6,0 0,-6z M174,228l6,0 0,6 -6,0 0,-6z M180,228l6,0 0,6 -6,0 0,-6z M186,228l6,0 0,6 -6,0 0,-6z M210,228l6,0 0,6 -6,0 0,-6z M234,228l6,0 0,6 -6,0 0,-6z M18,234l6,0 0,6 -6,0 0,-6z M24,234l6,0 0,6 -6,0 0,-6z M30,234l6,0 0,6 -6,0 0,-6z M36,234l6,0 0,6 -6,0 0,-6z M42,234l6,0 0,6 -6,0 0,-6z M48,234l6,0 0,6 -6,0 0,-6z M54,234l6,0 0,6 -6,0 0,-6z M66,234l6,0 0,6 -6,0 0,-6z M96,234l6,0 0,6 -6,0 0,-6z M102,234l6,0 0,6 -6,0 0,-6z M114,234l6,0 0,6 -6,0 0,-6z M120,234l6,0 0,6 -6,0 0,-6z M126,234l6,0 0,6 -6,0 0,-6z M132,234l6,0 0,6 -6,0 0,-6z M144,234l6,0 0,6 -6,0 0,-6z M156,234l6,0 0,6 -6,0 0,-6z M162,234l6,0 0,6 -6,0 0,-6z M168,234l6,0 0,6 -6,0 0,-6z M180,234l6,0 0,6 -6,0 0,-6z M186,234l6,0 0,6 -6,0 0,-6z M198,234l6,0 0,6 -6,0 0,-6z M204,234l6,0 0,6 -6,0 0,-6z M210,234l6,0 0,6 -6,0 0,-6z M216,234l6,0 0,6 -6,0 0,-6z M234,234l6,0 0,6 -6,0 0,-6z " stroke="transparent" fill="black"/><text
     xml:space="preserve"
     style="font-style:normal;font-weight:normal;font-size:14.79809952px;line-height:1.25;font-family:sans-serif;letter-spacing:0px;word-spacing:0px;fill:#000000;fill-opacity:1;stroke:none;stroke-width:0.36995247"
     x="51.262955"
     y="239.21269"
     id="qr-label"
     transform="scale(0.92825188,1.0772938)"><title
       id="title22">qr-label</title><tspan
       sodipodi:role="line"
       id="tspan14"
       x="51.262955"
       y="239.21269"
       style="letter-spacing:-0.26368171px;stroke-width:0.36995247">327-92P. SHARA</tspan></text></svg>