<svg version="1.1" xmlns="http://www.w3.org/2000/svg" width="258px" height="258px" viewBox="0 0 258 258"  preserveAspectRatio="xMinYMin meet"><rect width="100%" height="100%" fill="white" cx="0" cy="0"/><path d="M18,18l6,0 0,6 -6,0 0,-6z M24,18l6,0 0,6 -6,0 0,-6z M30,18l6,0 0,6 -6,0 0,-6z M36,18l6,0 0,6 -6,0 0,-6z M42,18l6,0 0,6 -6,0 0,-6z M48,18l6,0 0,6 -6,0 0,-6z M54,18l6,0 0,6 -6,0 0,-6z M66,18l6,0 0,6 -6,0 0,-6z M84,18l6,0 0,6 -6,0 0,-6z M90,18l6,0 0,6 -6,0 0,-6z M108,18l6,0 0,6 -6,0 0,-6z M114,18l6,0 0,6 -6,0 0,-6z M126,18l6,0 0,6 -6,0 0,-6z M144,18l6,0 0,6 -6,0 0,-6z M150,18l6,0 0,6 -6,0 0,-6z M162,18l6,0 0,6 -6,0 0,-6z M168,18l6,0 0,6 -6,0 0,-6z M198,18l6,0 0,6 -6,0 0,-6z M204,18l6,0 0,6 -6,0 0,-6z M210,18l6,0 0,6 -6,0 0,-6z M216,18l6,0 0,6 -6,0 0,-6z M222,18l6,0 0,6 -6,0 0,-6z M228,18l6,0 0,6 -6,0 0,-6z M234,18l6,0 0,6 -6,0 0,-6z M18,24l6,0 0,6 -6,0 0,-6z M54,24l6,0 0,6 -6,0 0,-6z M66,24l6,0 0,6 -6,0 0,-6z M72,24l6,0 0,6 -6,0 0,-6z M78,24l6,0 0,6 -6,0 0,-6z M90,24l6,0 0,6 -6,0 0,-6z M96,24l6,0 0,6 -6,0 0,-6z M102,24l6,0 0,6 -6,0 0,-6z M114,24l6,0 0,6 -6,0 0,-6z M126,24l6,0 0,6 -6,0 0,-6z M138,24l6,0 0,6 -6,0 0,-6z M144,24l6,0 0,6 -6,0 0,-6z M174,24l6,0 0,6 -6,0 0,-6z M186,24l6,0 0,6 -6,0 0,-6z M198,24l6,0 0,6 -6,0 0,-6z M234,24l6,0 0,6 -6,0 0,-6z M18,30l6,0 0,6 -6,0 0,-6z M30,30l6,0 0,6 -6,0 0,-6z M36,30l6,0 0,6 -6,0 0,-6z M42,30l6,0 0,6 -6,0 0,-6z M54,30l6,0 0,6 -6,0 0,-6z M78,30l6,0 0,6 -6,0 0,-6z M84,30l6,0 0,6 -6,0 0,-6z M90,30l6,0 0,6 -6,0 0,-6z M102,30l6,0 0,6 -6,0 0,-6z M108,30l6,0 0,6 -6,0 0,-6z M114,30l6,0 0,6 -6,0 0,-6z M120,30l6,0 0,6 -6,0 0,-6z M132,30l6,0 0,6 -6,0 0,-6z M138,30l6,0 0,6 -6,0 0,-6z M144,30l6,0 0,6 -6,0 0,-6z M150,30l6,0 0,6 -6,0 0,-6z M156,30l6,0 0,6 -6,0 0,-6z M168,30l6,0 0,6 -6,0 0,-6z M174,30l6,0 0,6 -6,0 0,-6z M180,30l6,0 0,6 -6,0 0,-6z M186,30l6,0 0,6 -6,0 0,-6z M198,30l6,0 0,6 -6,0 0,-6z M210,30l6,0 0,6 -6,0 0,-6z M216,30l6,0 0,6 -6,0 0,-6z M222,30l6,0 0,6 -6,0 0,-6z M234,30l6,0 0,6 -6,0 0,-6z M18,36l6,0 0,6 -6,0 0,-6z M30,36l6,0 0,6 -6,0 0,-6z M36,36l6,0 0,6 -6,0 0,-6z M42,36l6,0 0,6 -6,0 0,-6z M54,36l6,0 0,6 -6,0 0,-6z M78,36l6,0 0,6 -6,0 0,-6z M102,36l6,0 0,6 -6,0 0,-6z M120,36l6,0 0,6 -6,0 0,-6z M144,36l6,0 0,6 -6,0 0,-6z M150,36l6,0 0,6 -6,0 0,-6z M156,36l6,0 0,6 -6,0 0,-6z M168,36l6,0 0,6 -6,0 0,-6z M174,36l6,0 0,6 -6,0 0,-6z M198,36l6,0 0,6 -6,0 0,-6z M210,36l6,0 0,6 -6,0 0,-6z M216,36l6,0 0,6 -6,0 0,-6z M222,36l6,0 0,6 -6,0 0,-6z M234,36l6,0 0,6 -6,0 0,-6z M18,42l6,0 0,6 -6,0 0,-6z M30,42l6,0 0,6 -6,0 0,-6z M36,42l6,0 0,6 -6,0 0,-6z M42,42l6,0 0,6 -6,0 0,-6z M54,42l6,0 0,6 -6,0 0,-6z M66,42l6,0 0,6 -6,0 0,-6z M72,42l6,0 0,6 -6,0 0,-6z M78,42l6,0 0,6 -6,0 0,-6z M84,42l6,0 0,6 -6,0 0,-6z M96,42l6,0 0,6 -6,0 0,-6z M102,42l6,0 0,6 -6,0 0,-6z M108,42l6,0 0,6 -6,0 0,-6z M120,42l6,0 0,6 -6,0 0,-6z M126,42l6,0 0,6 -6,0 0,-6z M150,42l6,0 0,6 -6,0 0,-6z M162,42l6,0 0,6 -6,0 0,-6z M168,42l6,0 0,6 -6,0 0,-6z M174,42l6,0 0,6 -6,0 0,-6z M198,42l6,0 0,6 -6,0 0,-6z M210,42l6,0 0,6 -6,0 0,-6z M216,42l6,0 0,6 -6,0 0,-6z M222,42l6,0 0,6 -6,0 0,-6z M234,42l6,0 0,6 -6,0 0,-6z M18,48l6,0 0,6 -6,0 0,-6z M54,48l6,0 0,6 -6,0 0,-6z M66,48l6,0 0,6 -6,0 0,-6z M84,48l6,0 0,6 -6,0 0,-6z M108,48l6,0 0,6 -6,0 0,-6z M120,48l6,0 0,6 -6,0 0,-6z M144,48l6,0 0,6 -6,0 0,-6z M150,48l6,0 0,6 -6,0 0,-6z M174,48l6,0 0,6 -6,0 0,-6z M198,48l6,0 0,6 -6,0 0,-6z M234,48l6,0 0,6 -6,0 0,-6z M18,54l6,0 0,6 -6,0 0,-6z M24,54l6,0 0,6 -6,0 0,-6z M30,54l6,0 0,6 -6,0 0,-6z M36,54l6,0 0,6 -6,0 0,-6z M42,54l6,0 0,6 -6,0 0,-6z M48,54l6,0 0,6 -6,0 0,-6z M54,54l6,0 0,6 -6,0 0,-6z M66,54l6,0 0,6 -6,0 0,-6z M78,54l6,0 0,6 -6,0 0,-6z M90,54l6,0 0,6 -6,0 0,-6z M102,54l6,0 0,6 -6,0 0,-6z M114,54l6,0 0,6 -6,0 0,-6z M126,54l6,0 0,6 -6,0 0,-6z M138,54l6,0 0,6 -6,0 0,-6z M150,54l6,0 0,6 -6,0 0,-6z M162,54l6,0 0,6 -6,0 0,-6z M174,54l6,0 0,6 -6,0 0,-6z M186,54l6,0 0,6 -6,0 0,-6z M198,54l6,0 0,6 -6,0 0,-6z M204,54l6,0 0,6 -6,0 0,-6z M210,54l6,0 0,6 -6,0 0,-6z M216,54l6,0 0,6 -6,0 0,-6z M222,54l6,0 0,6 -6,0 0,-6z M228,54l6,0 0,6 -6,0 0,-6z M234,54l6,0 0,6 -6,0 0,-6z M66,60l6,0 0,6 -6,0 0,-6z M78,60l6,0 0,6 -6,0 0,-6z M84,60l6,0 0,6 -6,0 0,-6z M90,60l6,0 0,6 -6,0 0,-6z M102,60l6,0 0,6 -6,0 0,-6z M108,60l6,0 0,6 -6,0 0,-6z M114,60l6,0 0,6 -6,0 0,-6z M132,60l6,0 0,6 -6,0 0,-6z M156,60l6,0 0,6 -6,0 0,-6z M174,60l6,0 0,6 -6,0 0,-6z M186,60l6,0 0,6 -6,0 0,-6z M18,66l6,0 0,6 -6,0 0,-6z M24,66l6,0 0,6 -6,0 0,-6z M30,66l6,0 0,6 -6,0 0,-6z M48,66l6,0 0,6 -6,0 0,-6z M54,66l6,0 0,6 -6,0 0,-6z M66,66l6,0 0,6 -6,0 0,-6z M72,66l6,0 0,6 -6,0 0,-6z M78,66l6,0 0,6 -6,0 0,-6z M96,66l6,0 0,6 -6,0 0,-6z M102,66l6,0 0,6 -6,0 0,-6z M126,66l6,0 0,6 -6,0 0,-6z M132,66l6,0 0,6 -6,0 0,-6z M156,66l6,0 0,6 -6,0 0,-6z M162,66l6,0 0,6 -6,0 0,-6z M174,66l6,0 0,6 -6,0 0,-6z M180,66l6,0 0,6 -6,0 0,-6z M192,66l6,0 0,6 -6,0 0,-6z M198,66l6,0 0,6 -6,0 0,-6z M204,66l6,0 0,6 -6,0 0,-6z M210,66l6,0 0,6 -6,0 0,-6z M228,66l6,0 0,6 -6,0 0,-6z M234,66l6,0 0,6 -6,0 0,-6z M18,72l6,0 0,6 -6,0 0,-6z M36,72l6,0 0,6 -6,0 0,-6z M42,72l6,0 0,6 -6,0 0,-6z M60,72l6,0 0,6 -6,0 0,-6z M72,72l6,0 0,6 -6,0 0,-6z M78,72l6,0 0,6 -6,0 0,-6z M96,72l6,0 0,6 -6,0 0,-6z M102,72l6,0 0,6 -6,0 0,-6z M120,72l6,0 0,6 -6,0 0,-6z M132,72l6,0 0,6 -6,0 0,-6z M138,72l6,0 0,6 -6,0 0,-6z M156,72l6,0 0,6 -6,0 0,-6z M180,72l6,0 0,6 -6,0 0,-6z M186,72l6,0 0,6 -6,0 0,-6z M198,72l6,0 0,6 -6,0 0,-6z M234,72l6,0 0,6 -6,0 0,-6z M18,78l6,0 0,6 -6,0 0,-6z M24,78l6,0 0,6 -6,0 0,-6z M30,78l6,0 0,6 -6,0 0,-6z M36,78l6,0 0,6 -6,0 0,-6z M42,78l6,0 0,6 -6,0 0,-6z M48,78l6,0 0,6 -6,0 0,-6z M54,78l6,0 0,6 -6,0 0,-6z M66,78l6,0 0,6 -6,0 0,-6z M72,78l6,0 0,6 -6,0 0,-6z M84,78l6,0 0,6 -6,0 0,-6z M108,78l6,0 0,6 -6,0 0,-6z M120,78l6,0 0,6 -6,0 0,-6z M132,78l6,0 0,6 -6,0 0,-6z M138,78l6,0 0,6 -6,0 0,-6z M144,78l6,0 0,6 -6,0 0,-6z M150,78l6,0 0,6 -6,0 0,-6z M156,78l6,0 0,6 -6,0 0,-6z M174,78l6,0 0,6 -6,0 0,-6z M180,78l6,0 0,6 -6,0 0,-6z M192,78l6,0 0,6 -6,0 0,-6z M198,78l6,0 0,6 -6,0 0,-6z M204,78l6,0 0,6 -6,0 0,-6z M210,78l6,0 0,6 -6,0 0,-6z M216,78l6,0 0,6 -6,0 0,-6z M228,78l6,0 0,6 -6,0 0,-6z M234,78l6,0 0,6 -6,0 0,-6z M36,84l6,0 0,6 -6,0 0,-6z M42,84l6,0 0,6 -6,0 0,-6z M60,84l6,0 0,6 -6,0 0,-6z M66,84l6,0 0,6 -6,0 0,-6z M78,84l6,0 0,6 -6,0 0,-6z M96,84l6,0 0,6 -6,0 0,-6z M138,84l6,0 0,6 -6,0 0,-6z M150,84l6,0 0,6 -6,0 0,-6z M180,84l6,0 0,6 -6,0 0,-6z M198,84l6,0 0,6 -6,0 0,-6z M204,84l6,0 0,6 -6,0 0,-6z M210,84l6,0 0,6 -6,0 0,-6z M234,84l6,0 0,6 -6,0 0,-6z M30,90l6,0 0,6 -6,0 0,-6z M48,90l6,0 0,6 -6,0 0,-6z M54,90l6,0 0,6 -6,0 0,-6z M60,90l6,0 0,6 -6,0 0,-6z M72,90l6,0 0,6 -6,0 0,-6z M78,90l6,0 0,6 -6,0 0,-6z M84,90l6,0 0,6 -6,0 0,-6z M90,90l6,0 0,6 -6,0 0,-6z M96,90l6,0 0,6 -6,0 0,-6z M108,90l6,0 0,6 -6,0 0,-6z M114,90l6,0 0,6 -6,0 0,-6z M126,90l6,0 0,6 -6,0 0,-6z M132,90l6,0 0,6 -6,0 0,-6z M156,90l6,0 0,6 -6,0 0,-6z M162,90l6,0 0,6 -6,0 0,-6z M174,90l6,0 0,6 -6,0 0,-6z M180,90l6,0 0,6 -6,0 0,-6z M198,90l6,0 0,6 -6,0 0,-6z M204,90l6,0 0,6 -6,0 0,-6z M216,90l6,0 0,6 -6,0 0,-6z M228,90l6,0 0,6 -6,0 0,-6z M234,90l6,0 0,6 -6,0 0,-6z M30,96l6,0 0,6 -6,0 0,-6z M36,96l6,0 0,6 -6,0 0,-6z M60,96l6,0 0,6 -6,0 0,-6z M66,96l6,0 0,6 -6,0 0,-6z M72,96l6,0 0,6 -6,0 0,-6z M78,96l6,0 0,6 -6,0 0,-6z M90,96l6,0 0,6 -6,0 0,-6z M114,96l6,0 0,6 -6,0 0,-6z M132,96l6,0 0,6 -6,0 0,-6z M138,96l6,0 0,6 -6,0 0,-6z M144,96l6,0 0,6 -6,0 0,-6z M156,96l6,0 0,6 -6,0 0,-6z M162,96l6,0 0,6 -6,0 0,-6z M168,96l6,0 0,6 -6,0 0,-6z M174,96l6,0 0,6 -6,0 0,-6z M180,96l6,0 0,6 -6,0 0,-6z M186,96l6,0 0,6 -6,0 0,-6z M198,96l6,0 0,6 -6,0 0,-6z M216,96l6,0 0,6 -6,0 0,-6z M222,96l6,0 0,6 -6,0 0,-6z M234,96l6,0 0,6 -6,0 0,-6z M18,102l6,0 0,6 -6,0 0,-6z M42,102l6,0 0,6 -6,0 0,-6z M48,102l6,0 0,6 -6,0 0,-6z M54,102l6,0 0,6 -6,0 0,-6z M60,102l6,0 0,6 -6,0 0,-6z M72,102l6,0 0,6 -6,0 0,-6z M90,102l6,0 0,6 -6,0 0,-6z M96,102l6,0 0,6 -6,0 0,-6z M102,102l6,0 0,6 -6,0 0,-6z M114,102l6,0 0,6 -6,0 0,-6z M126,102l6,0 0,6 -6,0 0,-6z M132,102l6,0 0,6 -6,0 0,-6z M144,102l6,0 0,6 -6,0 0,-6z M156,102l6,0 0,6 -6,0 0,-6z M162,102l6,0 0,6 -6,0 0,-6z M174,102l6,0 0,6 -6,0 0,-6z M180,102l6,0 0,6 -6,0 0,-6z M186,102l6,0 0,6 -6,0 0,-6z M204,102l6,0 0,6 -6,0 0,-6z M216,102l6,0 0,6 -6,0 0,-6z M222,102l6,0 0,6 -6,0 0,-6z M228,102l6,0 0,6 -6,0 0,-6z M234,102l6,0 0,6 -6,0 0,-6z M18,108l6,0 0,6 -6,0 0,-6z M24,108l6,0 0,6 -6,0 0,-6z M30,108l6,0 0,6 -6,0 0,-6z M36,108l6,0 0,6 -6,0 0,-6z M42,108l6,0 0,6 -6,0 0,-6z M48,108l6,0 0,6 -6,0 0,-6z M60,108l6,0 0,6 -6,0 0,-6z M72,108l6,0 0,6 -6,0 0,-6z M84,108l6,0 0,6 -6,0 0,-6z M90,108l6,0 0,6 -6,0 0,-6z M102,108l6,0 0,6 -6,0 0,-6z M108,108l6,0 0,6 -6,0 0,-6z M114,108l6,0 0,6 -6,0 0,-6z M150,108l6,0 0,6 -6,0 0,-6z M156,108l6,0 0,6 -6,0 0,-6z M180,108l6,0 0,6 -6,0 0,-6z M198,108l6,0 0,6 -6,0 0,-6z M234,108l6,0 0,6 -6,0 0,-6z M30,114l6,0 0,6 -6,0 0,-6z M42,114l6,0 0,6 -6,0 0,-6z M48,114l6,0 0,6 -6,0 0,-6z M54,114l6,0 0,6 -6,0 0,-6z M72,114l6,0 0,6 -6,0 0,-6z M96,114l6,0 0,6 -6,0 0,-6z M102,114l6,0 0,6 -6,0 0,-6z M114,114l6,0 0,6 -6,0 0,-6z M132,114l6,0 0,6 -6,0 0,-6z M138,114l6,0 0,6 -6,0 0,-6z M156,114l6,0 0,6 -6,0 0,-6z M174,114l6,0 0,6 -6,0 0,-6z M180,114l6,0 0,6 -6,0 0,-6z M186,114l6,0 0,6 -6,0 0,-6z M192,114l6,0 0,6 -6,0 0,-6z M198,114l6,0 0,6 -6,0 0,-6z M204,114l6,0 0,6 -6,0 0,-6z M216,114l6,0 0,6 -6,0 0,-6z M228,114l6,0 0,6 -6,0 0,-6z M18,120l6,0 0,6 -6,0 0,-6z M30,120l6,0 0,6 -6,0 0,-6z M36,120l6,0 0,6 -6,0 0,-6z M48,120l6,0 0,6 -6,0 0,-6z M66,120l6,0 0,6 -6,0 0,-6z M78,120l6,0 0,6 -6,0 0,-6z M96,120l6,0 0,6 -6,0 0,-6z M102,120l6,0 0,6 -6,0 0,-6z M126,120l6,0 0,6 -6,0 0,-6z M138,120l6,0 0,6 -6,0 0,-6z M156,120l6,0 0,6 -6,0 0,-6z M162,120l6,0 0,6 -6,0 0,-6z M180,120l6,0 0,6 -6,0 0,-6z M198,120l6,0 0,6 -6,0 0,-6z M228,120l6,0 0,6 -6,0 0,-6z M234,120l6,0 0,6 -6,0 0,-6z M18,126l6,0 0,6 -6,0 0,-6z M24,126l6,0 0,6 -6,0 0,-6z M48,126l6,0 0,6 -6,0 0,-6z M54,126l6,0 0,6 -6,0 0,-6z M60,126l6,0 0,6 -6,0 0,-6z M66,126l6,0 0,6 -6,0 0,-6z M78,126l6,0 0,6 -6,0 0,-6z M84,126l6,0 0,6 -6,0 0,-6z M108,126l6,0 0,6 -6,0 0,-6z M120,126l6,0 0,6 -6,0 0,-6z M132,126l6,0 0,6 -6,0 0,-6z M138,126l6,0 0,6 -6,0 0,-6z M144,126l6,0 0,6 -6,0 0,-6z M156,126l6,0 0,6 -6,0 0,-6z M162,126l6,0 0,6 -6,0 0,-6z M174,126l6,0 0,6 -6,0 0,-6z M180,126l6,0 0,6 -6,0 0,-6z M186,126l6,0 0,6 -6,0 0,-6z M192,126l6,0 0,6 -6,0 0,-6z M198,126l6,0 0,6 -6,0 0,-6z M210,126l6,0 0,6 -6,0 0,-6z M216,126l6,0 0,6 -6,0 0,-6z M228,126l6,0 0,6 -6,0 0,-6z M234,126l6,0 0,6 -6,0 0,-6z M24,132l6,0 0,6 -6,0 0,-6z M42,132l6,0 0,6 -6,0 0,-6z M48,132l6,0 0,6 -6,0 0,-6z M66,132l6,0 0,6 -6,0 0,-6z M96,132l6,0 0,6 -6,0 0,-6z M114,132l6,0 0,6 -6,0 0,-6z M150,132l6,0 0,6 -6,0 0,-6z M156,132l6,0 0,6 -6,0 0,-6z M186,132l6,0 0,6 -6,0 0,-6z M198,132l6,0 0,6 -6,0 0,-6z M204,132l6,0 0,6 -6,0 0,-6z M216,132l6,0 0,6 -6,0 0,-6z M234,132l6,0 0,6 -6,0 0,-6z M18,138l6,0 0,6 -6,0 0,-6z M54,138l6,0 0,6 -6,0 0,-6z M72,138l6,0 0,6 -6,0 0,-6z M84,138l6,0 0,6 -6,0 0,-6z M90,138l6,0 0,6 -6,0 0,-6z M96,138l6,0 0,6 -6,0 0,-6z M132,138l6,0 0,6 -6,0 0,-6z M138,138l6,0 0,6 -6,0 0,-6z M150,138l6,0 0,6 -6,0 0,-6z M156,138l6,0 0,6 -6,0 0,-6z M168,138l6,0 0,6 -6,0 0,-6z M186,138l6,0 0,6 -6,0 0,-6z M192,138l6,0 0,6 -6,0 0,-6z M198,138l6,0 0,6 -6,0 0,-6z M216,138l6,0 0,6 -6,0 0,-6z M228,138l6,0 0,6 -6,0 0,-6z M234,138l6,0 0,6 -6,0 0,-6z M48,144l6,0 0,6 -6,0 0,-6z M72,144l6,0 0,6 -6,0 0,-6z M78,144l6,0 0,6 -6,0 0,-6z M90,144l6,0 0,6 -6,0 0,-6z M108,144l6,0 0,6 -6,0 0,-6z M114,144l6,0 0,6 -6,0 0,-6z M120,144l6,0 0,6 -6,0 0,-6z M132,144l6,0 0,6 -6,0 0,-6z M156,144l6,0 0,6 -6,0 0,-6z M162,144l6,0 0,6 -6,0 0,-6z M168,144l6,0 0,6 -6,0 0,-6z M180,144l6,0 0,6 -6,0 0,-6z M192,144l6,0 0,6 -6,0 0,-6z M198,144l6,0 0,6 -6,0 0,-6z M222,144l6,0 0,6 -6,0 0,-6z M234,144l6,0 0,6 -6,0 0,-6z M18,150l6,0 0,6 -6,0 0,-6z M30,150l6,0 0,6 -6,0 0,-6z M48,150l6,0 0,6 -6,0 0,-6z M54,150l6,0 0,6 -6,0 0,-6z M60,150l6,0 0,6 -6,0 0,-6z M72,150l6,0 0,6 -6,0 0,-6z M78,150l6,0 0,6 -6,0 0,-6z M90,150l6,0 0,6 -6,0 0,-6z M96,150l6,0 0,6 -6,0 0,-6z M102,150l6,0 0,6 -6,0 0,-6z M108,150l6,0 0,6 -6,0 0,-6z M114,150l6,0 0,6 -6,0 0,-6z M120,150l6,0 0,6 -6,0 0,-6z M126,150l6,0 0,6 -6,0 0,-6z M132,150l6,0 0,6 -6,0 0,-6z M138,150l6,0 0,6 -6,0 0,-6z M150,150l6,0 0,6 -6,0 0,-6z M156,150l6,0 0,6 -6,0 0,-6z M162,150l6,0 0,6 -6,0 0,-6z M168,150l6,0 0,6 -6,0 0,-6z M180,150l6,0 0,6 -6,0 0,-6z M186,150l6,0 0,6 -6,0 0,-6z M192,150l6,0 0,6 -6,0 0,-6z M204,150l6,0 0,6 -6,0 0,-6z M210,150l6,0 0,6 -6,0 0,-6z M222,150l6,0 0,6 -6,0 0,-6z M228,150l6,0 0,6 -6,0 0,-6z M234,150l6,0 0,6 -6,0 0,-6z M18,156l6,0 0,6 -6,0 0,-6z M24,156l6,0 0,6 -6,0 0,-6z M30,156l6,0 0,6 -6,0 0,-6z M36,156l6,0 0,6 -6,0 0,-6z M84,156l6,0 0,6 -6,0 0,-6z M90,156l6,0 0,6 -6,0 0,-6z M102,156l6,0 0,6 -6,0 0,-6z M108,156l6,0 0,6 -6,0 0,-6z M126,156l6,0 0,6 -6,0 0,-6z M138,156l6,0 0,6 -6,0 0,-6z M174,156l6,0 0,6 -6,0 0,-6z M180,156l6,0 0,6 -6,0 0,-6z M198,156l6,0 0,6 -6,0 0,-6z M204,156l6,0 0,6 -6,0 0,-6z M216,156l6,0 0,6 -6,0 0,-6z M234,156l6,0 0,6 -6,0 0,-6z M18,162l6,0 0,6 -6,0 0,-6z M42,162l6,0 0,6 -6,0 0,-6z M48,162l6,0 0,6 -6,0 0,-6z M54,162l6,0 0,6 -6,0 0,-6z M60,162l6,0 0,6 -6,0 0,-6z M66,162l6,0 0,6 -6,0 0,-6z M78,162l6,0 0,6 -6,0 0,-6z M96,162l6,0 0,6 -6,0 0,-6z M102,162l6,0 0,6 -6,0 0,-6z M108,162l6,0 0,6 -6,0 0,-6z M114,162l6,0 0,6 -6,0 0,-6z M138,162l6,0 0,6 -6,0 0,-6z M150,162l6,0 0,6 -6,0 0,-6z M162,162l6,0 0,6 -6,0 0,-6z M180,162l6,0 0,6 -6,0 0,-6z M186,162l6,0 0,6 -6,0 0,-6z M192,162l6,0 0,6 -6,0 0,-6z M198,162l6,0 0,6 -6,0 0,-6z M216,162l6,0 0,6 -6,0 0,-6z M228,162l6,0 0,6 -6,0 0,-6z M234,162l6,0 0,6 -6,0 0,-6z M24,168l6,0 0,6 -6,0 0,-6z M30,168l6,0 0,6 -6,0 0,-6z M42,168l6,0 0,6 -6,0 0,-6z M66,168l6,0 0,6 -6,0 0,-6z M96,168l6,0 0,6 -6,0 0,-6z M102,168l6,0 0,6 -6,0 0,-6z M108,168l6,0 0,6 -6,0 0,-6z M126,168l6,0 0,6 -6,0 0,-6z M132,168l6,0 0,6 -6,0 0,-6z M138,168l6,0 0,6 -6,0 0,-6z M144,168l6,0 0,6 -6,0 0,-6z M150,168l6,0 0,6 -6,0 0,-6z M156,168l6,0 0,6 -6,0 0,-6z M162,168l6,0 0,6 -6,0 0,-6z M180,168l6,0 0,6 -6,0 0,-6z M198,168l6,0 0,6 -6,0 0,-6z M216,168l6,0 0,6 -6,0 0,-6z M234,168l6,0 0,6 -6,0 0,-6z M18,174l6,0 0,6 -6,0 0,-6z M24,174l6,0 0,6 -6,0 0,-6z M30,174l6,0 0,6 -6,0 0,-6z M48,174l6,0 0,6 -6,0 0,-6z M54,174l6,0 0,6 -6,0 0,-6z M60,174l6,0 0,6 -6,0 0,-6z M66,174l6,0 0,6 -6,0 0,-6z M72,174l6,0 0,6 -6,0 0,-6z M78,174l6,0 0,6 -6,0 0,-6z M84,174l6,0 0,6 -6,0 0,-6z M108,174l6,0 0,6 -6,0 0,-6z M114,174l6,0 0,6 -6,0 0,-6z M120,174l6,0 0,6 -6,0 0,-6z M132,174l6,0 0,6 -6,0 0,-6z M150,174l6,0 0,6 -6,0 0,-6z M156,174l6,0 0,6 -6,0 0,-6z M168,174l6,0 0,6 -6,0 0,-6z M174,174l6,0 0,6 -6,0 0,-6z M180,174l6,0 0,6 -6,0 0,-6z M186,174l6,0 0,6 -6,0 0,-6z M192,174l6,0 0,6 -6,0 0,-6z M198,174l6,0 0,6 -6,0 0,-6z M216,174l6,0 0,6 -6,0 0,-6z M222,174l6,0 0,6 -6,0 0,-6z M228,174l6,0 0,6 -6,0 0,-6z M234,174l6,0 0,6 -6,0 0,-6z M30,180l6,0 0,6 -6,0 0,-6z M42,180l6,0 0,6 -6,0 0,-6z M48,180l6,0 0,6 -6,0 0,-6z M60,180l6,0 0,6 -6,0 0,-6z M78,180l6,0 0,6 -6,0 0,-6z M96,180l6,0 0,6 -6,0 0,-6z M108,180l6,0 0,6 -6,0 0,-6z M156,180l6,0 0,6 -6,0 0,-6z M174,180l6,0 0,6 -6,0 0,-6z M198,180l6,0 0,6 -6,0 0,-6z M228,180l6,0 0,6 -6,0 0,-6z M234,180l6,0 0,6 -6,0 0,-6z M18,186l6,0 0,6 -6,0 0,-6z M24,186l6,0 0,6 -6,0 0,-6z M36,186l6,0 0,6 -6,0 0,-6z M42,186l6,0 0,6 -6,0 0,-6z M48,186l6,0 0,6 -6,0 0,-6z M54,186l6,0 0,6 -6,0 0,-6z M84,186l6,0 0,6 -6,0 0,-6z M90,186l6,0 0,6 -6,0 0,-6z M96,186l6,0 0,6 -6,0 0,-6z M108,186l6,0 0,6 -6,0 0,-6z M114,186l6,0 0,6 -6,0 0,-6z M132,186l6,0 0,6 -6,0 0,-6z M138,186l6,0 0,6 -6,0 0,-6z M150,186l6,0 0,6 -6,0 0,-6z M156,186l6,0 0,6 -6,0 0,-6z M180,186l6,0 0,6 -6,0 0,-6z M186,186l6,0 0,6 -6,0 0,-6z M192,186l6,0 0,6 -6,0 0,-6z M198,186l6,0 0,6 -6,0 0,-6z M204,186l6,0 0,6 -6,0 0,-6z M210,186l6,0 0,6 -6,0 0,-6z M216,186l6,0 0,6 -6,0 0,-6z M228,186l6,0 0,6 -6,0 0,-6z M66,192l6,0 0,6 -6,0 0,-6z M90,192l6,0 0,6 -6,0 0,-6z M108,192l6,0 0,6 -6,0 0,-6z M120,192l6,0 0,6 -6,0 0,-6z M132,192l6,0 0,6 -6,0 0,-6z M138,192l6,0 0,6 -6,0 0,-6z M156,192l6,0 0,6 -6,0 0,-6z M162,192l6,0 0,6 -6,0 0,-6z M168,192l6,0 0,6 -6,0 0,-6z M180,192l6,0 0,6 -6,0 0,-6z M186,192l6,0 0,6 -6,0 0,-6z M210,192l6,0 0,6 -6,0 0,-6z M228,192l6,0 0,6 -6,0 0,-6z M234,192l6,0 0,6 -6,0 0,-6z M18,198l6,0 0,6 -6,0 0,-6z M24,198l6,0 0,6 -6,0 0,-6z M30,198l6,0 0,6 -6,0 0,-6z M36,198l6,0 0,6 -6,0 0,-6z M42,198l6,0 0,6 -6,0 0,-6z M48,198l6,0 0,6 -6,0 0,-6z M54,198l6,0 0,6 -6,0 0,-6z M72,198l6,0 0,6 -6,0 0,-6z M90,198l6,0 0,6 -6,0 0,-6z M96,198l6,0 0,6 -6,0 0,-6z M102,198l6,0 0,6 -6,0 0,-6z M108,198l6,0 0,6 -6,0 0,-6z M114,198l6,0 0,6 -6,0 0,-6z M120,198l6,0 0,6 -6,0 0,-6z M132,198l6,0 0,6 -6,0 0,-6z M138,198l6,0 0,6 -6,0 0,-6z M150,198l6,0 0,6 -6,0 0,-6z M156,198l6,0 0,6 -6,0 0,-6z M168,198l6,0 0,6 -6,0 0,-6z M174,198l6,0 0,6 -6,0 0,-6z M186,198l6,0 0,6 -6,0 0,-6z M198,198l6,0 0,6 -6,0 0,-6z M210,198l6,0 0,6 -6,0 0,-6z M216,198l6,0 0,6 -6,0 0,-6z M234,198l6,0 0,6 -6,0 0,-6z M18,204l6,0 0,6 -6,0 0,-6z M54,204l6,0 0,6 -6,0 0,-6z M66,204l6,0 0,6 -6,0 0,-6z M78,204l6,0 0,6 -6,0 0,-6z M84,204l6,0 0,6 -6,0 0,-6z M90,204l6,0 0,6 -6,0 0,-6z M102,204l6,0 0,6 -6,0 0,-6z M108,204l6,0 0,6 -6,0 0,-6z M132,204l6,0 0,6 -6,0 0,-6z M138,204l6,0 0,6 -6,0 0,-6z M186,204l6,0 0,6 -6,0 0,-6z M210,204l6,0 0,6 -6,0 0,-6z M234,204l6,0 0,6 -6,0 0,-6z M18,210l6,0 0,6 -6,0 0,-6z M30,210l6,0 0,6 -6,0 0,-6z M36,210l6,0 0,6 -6,0 0,-6z M42,210l6,0 0,6 -6,0 0,-6z M54,210l6,0 0,6 -6,0 0,-6z M96,210l6,0 0,6 -6,0 0,-6z M102,210l6,0 0,6 -6,0 0,-6z M138,210l6,0 0,6 -6,0 0,-6z M144,210l6,0 0,6 -6,0 0,-6z M156,210l6,0 0,6 -6,0 0,-6z M162,210l6,0 0,6 -6,0 0,-6z M180,210l6,0 0,6 -6,0 0,-6z M186,210l6,0 0,6 -6,0 0,-6z M192,210l6,0 0,6 -6,0 0,-6z M198,210l6,0 0,6 -6,0 0,-6z M204,210l6,0 0,6 -6,0 0,-6z M210,210l6,0 0,6 -6,0 0,-6z M228,210l6,0 0,6 -6,0 0,-6z M234,210l6,0 0,6 -6,0 0,-6z M18,216l6,0 0,6 -6,0 0,-6z M30,216l6,0 0,6 -6,0 0,-6z M36,216l6,0 0,6 -6,0 0,-6z M42,216l6,0 0,6 -6,0 0,-6z M54,216l6,0 0,6 -6,0 0,-6z M72,216l6,0 0,6 -6,0 0,-6z M78,216l6,0 0,6 -6,0 0,-6z M96,216l6,0 0,6 -6,0 0,-6z M102,216l6,0 0,6 -6,0 0,-6z M108,216l6,0 0,6 -6,0 0,-6z M132,216l6,0 0,6 -6,0 0,-6z M138,216l6,0 0,6 -6,0 0,-6z M150,216l6,0 0,6 -6,0 0,-6z M156,216l6,0 0,6 -6,0 0,-6z M162,216l6,0 0,6 -6,0 0,-6z M180,216l6,0 0,6 -6,0 0,-6z M204,216l6,0 0,6 -6,0 0,-6z M210,216l6,0 0,6 -6,0 0,-6z M222,216l6,0 0,6 -6,0 0,-6z M228,216l6,0 0,6 -6,0 0,-6z M18,222l6,0 0,6 -6,0 0,-6z M30,222l6,0 0,6 -6,0 0,-6z M36,222l6,0 0,6 -6,0 0,-6z M42,222l6,0 0,6 -6,0 0,-6z M54,222l6,0 0,6 -6,0 0,-6z M66,222l6,0 0,6 -6,0 0,-6z M72,222l6,0 0,6 -6,0 0,-6z M84,222l6,0 0,6 -6,0 0,-6z M108,222l6,0 0,6 -6,0 0,-6z M114,222l6,0 0,6 -6,0 0,-6z M120,222l6,0 0,6 -6,0 0,-6z M132,222l6,0 0,6 -6,0 0,-6z M150,222l6,0 0,6 -6,0 0,-6z M156,222l6,0 0,6 -6,0 0,-6z M162,222l6,0 0,6 -6,0 0,-6z M168,222l6,0 0,6 -6,0 0,-6z M174,222l6,0 0,6 -6,0 0,-6z M180,222l6,0 0,6 -6,0 0,-6z M186,222l6,0 0,6 -6,0 0,-6z M204,222l6,0 0,6 -6,0 0,-6z M210,222l6,0 0,6 -6,0 0,-6z M216,222l6,0 0,6 -6,0 0,-6z M234,222l6,0 0,6 -6,0 0,-6z M18,228l6,0 0,6 -6,0 0,-6z M54,228l6,0 0,6 -6,0 0,-6z M66,228l6,0 0,6 -6,0 0,-6z M96,228l6,0 0,6 -6,0 0,-6z M108,228l6,0 0,6 -6,0 0,-6z M126,228l6,0 0,6 -6,0 0,-6z M132,228l6,0 0,6 -6,0 0,-6z M138,228l6,0 0,6 -6,0 0,-6z M150,228l6,0 0,6 -6,0 0,-6z M156,228l6,0 0,6 -6,0 0,-6z M174,228l6,0 0,6 -6,0 0,-6z M180,228l6,0 0,6 -6,0 0,-6z M186,228l6,0 0,6 -6,0 0,-6z M210,228l6,0 0,6 -6,0 0,-6z M18,234l6,0 0,6 -6,0 0,-6z M24,234l6,0 0,6 -6,0 0,-6z M30,234l6,0 0,6 -6,0 0,-6z M36,234l6,0 0,6 -6,0 0,-6z M42,234l6,0 0,6 -6,0 0,-6z M48,234l6,0 0,6 -6,0 0,-6z M54,234l6,0 0,6 -6,0 0,-6z M66,234l6,0 0,6 -6,0 0,-6z M78,234l6,0 0,6 -6,0 0,-6z M84,234l6,0 0,6 -6,0 0,-6z M90,234l6,0 0,6 -6,0 0,-6z M96,234l6,0 0,6 -6,0 0,-6z M108,234l6,0 0,6 -6,0 0,-6z M114,234l6,0 0,6 -6,0 0,-6z M126,234l6,0 0,6 -6,0 0,-6z M138,234l6,0 0,6 -6,0 0,-6z M156,234l6,0 0,6 -6,0 0,-6z M180,234l6,0 0,6 -6,0 0,-6z M186,234l6,0 0,6 -6,0 0,-6z M198,234l6,0 0,6 -6,0 0,-6z M204,234l6,0 0,6 -6,0 0,-6z M210,234l6,0 0,6 -6,0 0,-6z M216,234l6,0 0,6 -6,0 0,-6z M234,234l6,0 0,6 -6,0 0,-6z " stroke="transparent" fill="black"/><text
     xml:space="preserve"
     style="font-style:normal;font-weight:normal;font-size:14.79809952px;line-height:1.25;font-family:sans-serif;letter-spacing:0px;word-spacing:0px;fill:#000000;fill-opacity:1;stroke:none;stroke-width:0.36995247"
     x="51.262955"
     y="239.21269"
     id="qr-label"
     transform="scale(0.92825188,1.0772938)"><title
       id="title22">qr-label</title><tspan
       sodipodi:role="line"
       id="tspan14"
       x="51.262955"
       y="239.21269"
       style="letter-spacing:-0.26368171px;stroke-width:0.36995247">345-110Sonal Atram</tspan></text></svg>